<svg width="171" height="62" viewBox="0 0 171 62" fill="none" xmlns="http://www.w3.org/2000/svg">
<path d="M13.8236 30.0883C11.8144 26.7172 9.95898 23.5965 8.76825 20.5998C8.37349 19.3845 8.06332 18.1878 7.87158 17.041C7.19645 13.7584 7.47843 11.8305 8.7328 9.17364C8.75939 9.11807 8.78759 9.06089 8.81659 9.00372C9.41357 8.66306 10.2361 8.34575 11.1787 8.25314C13.279 8.04617 16.8456 8.5785 18.2095 12.4135C19.6484 16.4652 16.5765 24.3648 13.8236 30.0883ZM26.7952 7.24002C26.6582 6.97667 26.1499 6.02396 25.975 5.6978C25.942 5.6374 25.9203 5.59793 25.9154 5.58908C23.6967 1.51647 23.6218 2.28799 22.2369 2.04316C22.1853 2.03431 22.1322 2.02062 22.0806 2.00773C20.5032 1.64452 17.7922 0.617714 16.4677 0.131287C15.0989 -0.369633 11.4969 0.707912 9.17188 0.936626C8.58054 0.993809 8.12213 1.10253 7.75637 1.24508C6.68729 1.65982 6.42143 2.36449 5.97994 2.94192C5.72214 3.28016 5.54168 3.38245 5.3024 3.43882C5.29757 3.43962 5.29112 3.43962 5.2879 3.44123C3.47924 4.08953 -0.793853 9.35887 0.129407 16.6303C0.195469 17.3438 0.345318 18.0388 0.537865 18.7193C2.30463 25.6976 8.2172 35.0565 9.66895 37.7125C8.59907 40.1736 6.31589 45.2271 5.5876 49.9866C5.55779 50.1477 5.38135 51.2414 5.37007 52.1595C5.2734 54.5787 5.72697 56.7926 7.13039 58.3823C7.13925 58.392 7.40592 58.6779 7.418 58.6908C8.13583 59.3978 8.98175 59.8472 9.8333 60.117C11.0385 60.6356 11.9554 60.3457 12.8424 60.1951C13.2379 60.4351 13.652 60.6203 14.0734 60.7645C16.6095 61.6407 19.447 60.9377 20.7763 60.1951C22.5591 59.6161 23.372 58.57 23.8812 56.948C24.3944 55.4203 25.1799 52.3028 23.4018 47.689C22.6035 45.6966 20.997 42.5783 18.5221 38.0459L18.506 38.0193C20.4903 34.2656 25.8034 24.9776 26.7493 22.2636C26.8008 22.1203 26.8451 21.9818 26.8894 21.8432C28.4959 17.7344 29.5448 12.2992 26.7952 7.24002Z" fill="white"/>
<path d="M12.3156 42.6746C11.7428 41.5705 10.4892 39.165 10.2217 38.5932C7.30856 44.2676 6.58993 50.5694 6.54401 52.4007C6.57462 53.8084 6.54401 55.9434 8.53554 56.8526C11.178 53.2552 6.54401 47.8803 12.3156 42.6746Z" fill="#ACA9A6"/>
<path d="M19.0035 23.7507C19.6851 20.3674 21.3842 17.4827 19.2267 12.7803C17.4495 8.90905 14.3905 7.52387 11.1776 8.2535H11.1784C13.2803 8.04653 16.8476 8.57725 18.21 12.4139C19.6488 16.4656 16.5769 24.3651 13.8241 30.0887C13.7612 30.2232 13.6928 30.3577 13.6283 30.4913C14.9665 32.8131 16.0613 34.8112 17.3681 37.1708C17.3681 37.1708 19.1292 34.3296 19.8607 33.0427C18.3606 29.5684 18.5782 25.8582 19.0035 23.7507Z" fill="#ACA9A6"/>
<path d="M27.3507 12.7166C27.3491 12.5998 27.3491 12.4806 27.3467 12.3686V12.3493C27.3459 12.2986 27.3435 12.2535 27.3435 12.2036C27.3249 11.697 27.2895 11.2589 27.2412 10.8965C27.1896 10.5397 27.1276 10.274 27.0704 10.0839C26.8158 9.32124 26.2051 8.4096 25.5058 7.53258C24.1378 5.8164 22.4299 4.23955 22.3767 4.18962C22.2688 4.23713 22.1584 4.29431 22.044 4.36035C20.585 5.23334 20.6188 6.4188 15.5522 3.99311C14.7868 3.62668 13.5905 3.85862 12.921 3.90292C18.044 7.70653 23.6666 7.54386 27.3507 12.7166Z" fill="#BCBAB7"/>
<path d="M23.4201 27.0327C23.6159 26.7371 23.7931 26.4625 23.9518 26.2128C24.1411 25.9028 24.3208 25.5855 24.4908 25.2641C24.5681 25.1184 24.6431 24.971 24.7164 24.8228C26.7965 20.6375 27.3798 15.7539 27.35 12.7161C24.743 5.14433 17.1418 8.52112 14.7071 3.80022C14.6669 3.80264 12.8437 3.90894 12.805 3.91297C12.9243 4.06518 13.0475 4.21497 13.1772 4.36477C14.1424 5.46647 16.403 7.70209 18.8344 8.27227C21.2674 8.84326 23.3073 9.19761 25.3601 12.2539C27.4128 15.3126 25.2296 19.6219 23.3073 23.854C22.5403 25.542 22.4638 27.238 22.3518 28.9123C22.6644 28.4807 22.7321 27.9781 23.1027 27.4804C23.2106 27.3339 23.3162 27.1841 23.4201 27.0327Z" fill="#CCC9C6"/>
<path d="M25.3604 12.2547C23.3069 9.19686 21.2678 8.84251 18.8348 8.27233C16.4025 7.70295 14.1427 5.46572 13.1776 4.36402C13.0479 4.21583 12.9246 4.06443 12.8054 3.91383C11.128 4.07732 9.78263 5.42062 8.87467 7.34377C8.56289 8.00496 8.30187 8.73379 8.09643 9.5053C8.76833 8.92385 9.90508 8.37783 11.1788 8.25381C14.3901 7.52336 17.4507 8.90855 19.2271 12.7814C21.3854 17.4822 19.6855 20.3685 19.0031 23.7502C18.5778 25.8577 18.361 29.5679 19.8603 33.0422C20.3816 32.1249 20.9447 30.8565 22.3522 28.9132C22.4642 27.2373 22.5399 25.5412 23.3069 23.8548C25.2299 19.622 27.4124 15.3118 25.3604 12.2547Z" fill="#BBB8B5"/>
<path d="M12.9223 3.90184C12.8821 3.90425 12.8434 3.90991 12.8039 3.91152C11.1266 4.07742 9.78277 5.4183 8.87321 7.34306C8.56223 8.00505 8.3004 8.73306 8.09657 9.50618C8.29879 9.33142 8.53967 9.16072 8.8152 9.00368C9.41379 8.66383 10.2363 8.34571 11.1789 8.2531C13.2792 8.04693 16.8474 8.57844 18.2089 12.4127C19.6486 16.4651 16.5767 24.3647 13.8238 30.0883C15.1604 32.41 15.9797 33.8822 17.4943 36.3538C17.4943 36.3538 24.0433 26.3724 24.1175 26.2243C26.1968 22.0389 27.3553 16.9057 27.0452 12.7928C26.5505 6.19709 22.4297 4.2393 22.3765 4.19017C22.2685 4.23689 22.1574 4.29487 22.0438 4.3601C20.5856 5.23389 20.5477 6.62793 15.481 4.20305C14.9388 3.94212 14.2162 3.87928 13.6039 3.87928C13.3517 3.87928 13.1173 3.88895 12.9223 3.90184Z" fill="url(#paint0_linear_16_104)"/>
<path d="M10.8039 38C8.53605 41.1617 5.05489 58.0594 10.1159 57.4674C18.0611 56.3553 11.8569 40.1551 10.8039 38Z" fill="#9A9794"/>
<path d="M12.9223 3.90186C12.8821 3.90428 12.8434 3.90993 12.8039 3.91154C11.1266 4.07744 9.78277 5.41832 8.87321 7.34308C8.56223 8.00507 8.3004 8.73308 8.09657 9.5062C8.29879 9.33145 8.53967 9.16075 8.8152 9.0037C9.41379 8.66385 10.2363 8.34574 11.1789 8.25312C13.2792 8.04696 16.8474 8.57846 18.2089 12.4127C19.6486 16.4652 16.5767 24.3647 13.8238 30.0883C15.1604 32.4101 16.3117 34.781 17.6208 37.1399C17.6208 37.1399 24.6436 24.972 24.7161 24.823C26.797 20.6368 27.6905 15.7363 27.3513 12.7163C27.0049 9.64716 26.4047 8.54866 25.6506 7.41716C25.3872 7.02093 22.4297 4.23932 22.3765 4.1902C22.2685 4.23691 22.1574 4.29489 22.0438 4.36012C20.5856 5.23392 20.5477 6.62795 15.481 4.20308C14.9388 3.94215 14.2162 3.8793 13.6039 3.8793C13.3517 3.8793 13.1173 3.88897 12.9223 3.90186Z" fill="url(#paint1_linear_16_104)"/>
<g opacity="0.279999">
<path d="M16.107 5.95867C13.9471 5.98122 12.3673 6.68427 12.3157 7.18599C22.4055 7.51618 23.2152 14.5726 13.3517 32.4036C9.61198 39.1644 8.12639 45.3801 8.10786 49.5557V49.7128C8.11914 52.3454 8.72578 54.1389 9.71993 54.7034C10.0607 54.8967 10.4257 54.9878 10.7866 54.9934H10.8486C12.4091 54.9717 13.8537 53.3336 12.841 51.2405C11.581 48.6376 12.6452 43.2684 15.8686 37.4031C19.0911 31.5354 30.3563 15.4061 23.4198 8.85305C21.1133 6.67381 18.4546 5.98041 16.3173 5.95867H16.107Z" fill="url(#paint2_linear_16_104)"/>
</g>
<g opacity="0.330002">
<path d="M11.4202 6.97001C11.9882 6.78559 12.5812 6.68331 13.1741 6.6213C13.7695 6.55768 14.3705 6.54721 14.9683 6.58667C16.1646 6.6664 17.3642 6.95874 18.4365 7.54019C19.5105 8.1152 20.4208 8.99061 21.0774 10.0255C21.4013 10.5457 21.6671 11.0998 21.8879 11.6708C22.0909 12.2458 22.2649 12.8305 22.3858 13.4296C22.878 15.8328 22.6524 18.3213 22.1529 20.6898C21.6454 23.0671 20.8631 25.3704 19.9503 27.5964C19.0448 29.828 17.9894 31.9823 16.9171 34.1124L15.2857 37.2862L13.6857 40.456C12.6561 42.5757 11.6611 44.7098 10.9731 46.931C10.7991 47.4858 10.6557 48.0464 10.5429 48.6141C10.4221 49.1779 10.3359 49.7505 10.3052 50.3239C10.2352 51.4715 10.3624 52.6416 10.8233 53.7337L10.6847 53.807C10.0144 52.793 9.6841 51.5552 9.60837 50.3263C9.52539 49.0941 9.67443 47.8603 9.92176 46.6644C10.1594 45.4636 10.526 44.3007 10.9216 43.1571C11.3171 42.012 11.7812 40.8974 12.2597 39.794C14.1933 35.3921 16.4692 31.2115 18.4873 26.9529C18.9852 25.885 19.4798 24.818 19.9173 23.7299C20.3628 22.6443 20.7713 21.5451 21.1008 20.4248C21.7646 18.1924 22.1409 15.8392 21.8001 13.5343C21.7251 12.9593 21.5689 12.3956 21.4013 11.8407C21.2144 11.2923 20.984 10.7591 20.6996 10.255C20.1187 9.25476 19.2945 8.39466 18.2875 7.80112C17.2845 7.20356 16.1292 6.86854 14.9554 6.74371C14.3673 6.6817 13.7735 6.66801 13.1814 6.70586C12.59 6.74532 11.9979 6.82263 11.4243 6.9837L11.4202 6.97001Z" fill="#797775"/>
</g>
<g opacity="0.550003">
<path d="M5.46134 51.0505C5.46134 54.5183 7.0702 56.5461 8.35277 57.3692C8.76284 57.6325 9.45488 57.8169 10.1888 57.8322H10.383C10.6827 57.8258 10.9856 57.7912 11.2764 57.7203C13.2535 57.2387 14.7503 55.256 14.785 51.5667V51.301C14.7713 49.8272 14.5304 48.0909 14.0043 46.0815C13.8287 45.4091 12.4253 42.3665 12.1465 41.8277C11.5737 40.7244 10.2557 38.128 9.98741 37.5562C7.69537 42.7353 5.50726 49.2159 5.46134 51.0505Z" fill="url(#paint3_linear_16_104)"/>
</g>
<g opacity="0.440002">
<path d="M8.87321 7.34304C8.56224 8.00503 8.30201 8.73304 8.09658 9.50617C8.29718 9.33141 8.54048 9.16071 8.81601 9.00366C9.41379 8.66381 10.2364 8.3457 11.1773 8.25308C13.2792 8.04692 16.8458 8.57842 18.2097 12.4126C19.6486 16.4651 16.5767 24.3647 13.8238 30.0882C15.1604 32.41 16.3979 34.5627 17.7038 36.9216C17.7038 36.9216 24.6436 24.9719 24.7161 24.823C26.797 20.6376 28.7434 12.7928 25.5064 7.53229C24.3559 5.66309 22.7052 4.26101 22.6504 4.21188C22.4345 4.2441 22.1574 4.29485 22.0438 4.36008C20.5856 5.23388 21.0923 5.94336 15.929 3.7319C15.5068 3.55069 15.0621 3.47015 14.611 3.47015C12.2263 3.47015 9.63776 5.72592 8.87321 7.34304Z" fill="url(#paint4_linear_16_104)"/>
</g>
<g opacity="0.440002">
<path d="M14.6206 3.83743C12.9409 3.84951 11.0597 5.22104 10.3596 6.00625C9.54593 6.92031 8.30202 8.73309 8.09659 9.50621C8.76849 8.92556 9.90444 8.37796 11.1773 8.25313C13.2793 8.04696 16.8458 8.57847 18.2097 12.4127C19.6486 16.4652 16.5767 24.3647 13.8239 30.0883C13.7594 30.2228 13.6933 30.3581 13.6281 30.491C13.3518 30.9814 10.1018 37.2292 9.98742 37.5562C7.97977 43.345 6.03738 49.2763 5.99146 51.1101C5.99146 54.2501 7.10485 57.7743 10.2275 57.8234H10.3596C10.6488 57.8194 10.9534 57.7856 11.2764 57.7203C14.2476 57.1139 14.9864 52.2617 14.5401 49.7619C14.5401 49.7619 13.5814 45.6998 13.5362 45.6153C13.5362 45.6153 19.4351 33.7913 19.8605 33.0423C20.3793 32.125 24.6436 24.972 24.7161 24.823C26.797 20.6376 27.5503 15.7476 27.3505 12.7163C27.2804 11.6492 26.2049 8.41015 25.5064 7.53233C24.1376 5.81615 22.1574 4.2949 22.0438 4.36013C20.5856 5.23392 20.8152 5.95471 15.5536 3.9929C15.2724 3.88821 14.9767 3.83984 14.6738 3.83743H14.6206Z" fill="url(#paint5_linear_16_104)"/>
</g>
<path d="M11.1225 7.68619C10.8494 7.71437 9.89554 7.90041 9.31548 8.09289L9.00209 8.57283L8.81518 9.00371C9.41377 8.66386 10.2363 8.34574 11.1789 8.25313C13.2792 8.04696 16.8474 8.57847 18.2089 12.4127C19.6486 16.4652 16.5767 24.3647 13.8238 30.0883C13.7642 30.2131 13.703 30.3364 13.6434 30.4604C14.0865 30.8324 14.4353 31.1151 14.4353 31.1151C14.5183 30.9782 14.569 30.8655 14.6432 30.7245C17.4774 24.8198 20.252 16.4571 18.7471 12.2234C18.1614 10.5781 17.1495 9.34598 15.7388 8.56319C15.6502 8.51487 15.1145 8.25636 14.9284 8.18549C14.8381 8.14845 14.7479 8.11463 14.6569 8.08242C14.4804 8.02121 13.9318 7.87138 13.8416 7.85125C13.4984 7.77232 13.1423 7.71594 12.7813 7.68373C12.5122 7.65796 12.2375 7.64672 11.966 7.64672C11.6816 7.64672 11.3964 7.6588 11.1225 7.68619Z" fill="url(#paint6_linear_16_104)"/>
<path d="M17.4949 36.3537C17.2742 35.984 17.1428 35.7811 17.142 35.7803C17.0591 35.6402 16.9809 35.5073 16.9004 35.3728C13.8454 29.882 10.556 25.1007 8.76745 20.6004C8.37349 19.3852 8.06332 18.1877 7.87077 17.0425C7.19645 13.7583 7.47843 11.8303 8.7328 9.17429C9.93884 6.61814 13.586 3.42819 15.6266 4.40507C20.027 6.51103 20.6127 5.49469 21.6737 4.62976C21.7068 4.60479 21.7898 4.54359 21.8236 4.51218C21.847 4.49446 21.9815 4.40749 22.0041 4.39138C33.5408 13.2558 21.1734 30.3885 17.4949 36.3537ZM10.4561 57.1266C10.1523 57.1741 9.8615 57.1822 9.58356 57.1532C9.12354 57.092 8.66271 56.9116 8.22203 56.608C7.60491 56.1828 7.1465 55.5546 6.91045 54.8435C6.19424 52.6989 6.34409 48.4322 10.1757 38.7705C10.5745 39.6387 10.9499 40.4553 11.1151 40.7903C13.3322 45.2753 13.8647 49.3889 13.8671 51.8452C13.6279 54.9369 12.1374 56.8117 10.4561 57.1266ZM26.7952 7.23986C26.6582 6.97732 26.1507 6.02541 25.975 5.69764C25.942 5.63643 25.9203 5.59697 25.9154 5.58811C23.6967 1.51632 23.6218 2.28944 22.2353 2.04462C22.1861 2.03576 22.1322 2.02046 22.0806 2.00838C20.5032 1.64598 17.7906 0.617554 16.4661 0.13274C15.0989 -0.368988 11.4969 0.707752 9.17188 0.935665C8.57893 0.994453 8.12213 1.10237 7.75637 1.24411C6.68729 1.65966 6.42143 2.36433 5.97994 2.94176C5.72214 3.2792 5.54006 3.38309 5.3016 3.43785C5.29757 3.43946 5.29112 3.43946 5.2879 3.44188C3.47924 4.08937 -0.793853 9.35952 0.129407 16.6293C0.193858 17.3428 0.345318 18.0387 0.53706 18.72C2.30463 25.6974 8.2172 35.0579 9.66895 37.7123C8.59907 40.1742 6.31589 45.2269 5.5876 49.9857C5.55779 50.1468 5.38135 51.2428 5.37007 52.1577V52.1593C5.27259 54.5785 5.72536 56.794 7.13039 58.383C7.13925 58.3918 7.40592 58.6785 7.41881 58.6914C8.13502 59.3969 8.98175 59.8479 9.83411 60.1185C11.0385 60.6363 11.9554 60.3456 12.8407 60.1942C13.2379 60.4358 13.652 60.6194 14.0742 60.7644C16.6095 61.6414 19.447 60.9367 20.7763 60.1942C22.5591 59.6159 23.3704 58.5698 23.8812 56.9487C24.3944 55.4217 25.1799 52.3026 23.4026 47.6897C22.6026 45.6964 20.997 42.5774 18.5221 38.0457L18.506 38.0191C20.4895 34.2655 25.8026 24.9783 26.7501 22.2635C26.8008 22.1209 26.8451 21.9824 26.8894 21.8447C28.4959 17.7351 29.5448 12.2982 26.7952 7.23986Z" fill="#EFECE8"/>
<path d="M22.0157 29.2008C21.849 29.4698 21.4236 30.106 20.8943 30.8904C19.5747 33.122 18.3203 35.0146 17.4961 36.3515C17.7644 36.7839 18.3622 37.7576 18.6176 38.2215C18.5845 38.1627 18.5539 38.1055 18.5225 38.0459L18.5056 38.0193C18.6329 37.7793 18.7747 37.5152 18.9277 37.2309C18.9334 35.7217 21.5018 30.3734 22.0157 29.2008Z" fill="#DAD7D3"/>
<path d="M16.4495 1.1295C15.4755 0.607639 14.2324 0.649516 13.0473 0.856489C12.6856 0.92011 11.8211 1.08601 11.8211 1.08601C11.8211 1.08601 13.5686 1.51526 14.9639 2.00812C15.863 2.352 17.3712 2.93427 19.1887 1.97591L19.2225 1.89779C18.3847 1.8084 17.3752 1.62559 16.4495 1.1295Z" fill="#BBB8B5"/>
<path d="M10.7632 1.5422C10.3636 1.70085 10.014 1.84015 9.76585 1.97706C6.48691 3.79471 5.5556 5.59384 5.40011 5.73961C5.30666 6.3726 5.16325 6.85825 5.09236 7.62815C5.699 7.94063 8.64038 7.36802 10.5957 5.82902C10.8382 5.62607 11.0935 5.432 11.3594 5.24757C11.4625 5.16785 11.5568 5.1195 11.6357 5.0599C11.6486 5.05507 11.6599 5.03013 11.672 5.0253C12.7902 4.02668 14.1058 1.57845 15.336 2.18326C15.4343 2.23158 15.5318 2.27586 15.6269 2.31613C15.4818 2.23237 15.336 2.14945 15.1886 2.06972C14.3072 1.59698 13.3743 1.25229 12.3608 1.25229C11.8508 1.25229 11.3191 1.34006 10.7632 1.5422Z" fill="url(#paint7_linear_16_104)"/>
<path d="M5.9148 3.57348C5.76898 3.93669 5.64814 4.28701 5.56596 4.73639C5.50876 5.04484 5.45398 5.38147 5.40081 5.74146C7.46807 3.17725 9.55145 2.08038 9.76736 1.9781C10.009 1.85891 10.6729 1.4039 10.9678 1.30645C8.72486 1.91448 7.4729 2.82854 6.13313 3.23363C6.07351 3.28759 5.94945 3.48811 5.9148 3.57348Z" fill="#F6F2EE"/>
<path d="M16.8984 4.46227C13.4712 2.54154 11.7044 4.98413 11.7036 4.98494C11.6932 4.98816 11.6827 5.02199 11.673 5.02601C10.4549 6.11483 9.23596 7.63209 8.73164 9.17432C9.93929 6.61736 13.5864 3.42741 15.6271 4.4051C20.4528 6.714 20.6953 5.27486 22.0045 4.39141C21.0482 4.96883 20.2571 6.34355 16.8984 4.46227Z" fill="#EBE7E3"/>
<path d="M21.6673 4.56148C19.4179 5.50212 17.8993 3.6587 15.6274 2.317C15.5316 2.27513 15.4349 2.23244 15.3366 2.18251C13.7583 1.3965 11.1022 5.56413 11.1086 5.56091C11.6162 5.18723 13.4715 2.54169 16.8987 4.46243C20.2566 6.3437 20.7569 5.27502 21.6697 4.63235C21.7156 4.60095 22.0048 4.39156 22.0048 4.39156C22.0048 4.39156 21.7132 4.52605 21.6697 4.55987L21.6673 4.56148Z" fill="#FFFBF7"/>
<path d="M10.5956 5.82895C8.63868 7.31642 5.69891 7.93975 5.09307 7.62889C4.82641 10.5676 4.18673 14.3672 4.83768 18.6604C5.12207 20.5353 5.50234 22.5309 5.81815 24.5056C5.01573 18.1982 4.84574 10.6264 10.5956 5.82895Z" fill="#EFECE8"/>
<path d="M7.75635 1.24473C6.68727 1.66029 6.42141 2.36415 5.97992 2.94158C5.72051 3.27982 5.54004 3.38371 5.30157 3.43848C5.46512 3.40385 5.65847 3.35794 5.87841 3.30398C6.47539 3.15419 6.98133 2.93272 7.57347 2.67179C8.11728 2.4318 8.73278 2.1596 9.52311 1.83746C9.96218 1.65868 10.8903 1.32124 11.3793 1.18916C11.8748 1.05467 13.1622 0.835618 13.2323 0.821928C13.2323 0.821928 13.7269 0.758306 13.8872 0.734146C13.8413 0.737367 8.43953 1.04581 7.75635 1.24473Z" fill="#EFECE8"/>
<path d="M13.7521 0.742597C13.6377 0.75065 8.43897 1.04618 7.75659 1.2451C6.68832 1.66065 6.42165 2.36534 5.98016 2.94116C5.72075 3.28021 5.54028 3.38408 5.30262 3.43884C5.46536 3.40421 5.65871 3.35914 5.87704 3.30357C6.47482 3.15458 6.98157 2.9323 7.57371 2.67057C8.11671 2.43138 8.73302 2.16079 9.52416 1.83785C9.96162 1.65906 10.8897 1.32001 11.3779 1.18793C11.875 1.05505 13.1125 0.840023 13.2317 0.823111C13.396 0.799756 13.7272 0.757871 13.8875 0.735322C13.8416 0.736933 13.7965 0.73857 13.7521 0.742597Z" fill="url(#paint8_linear_16_104)"/>
<path d="M21.5359 58.8731C21.4827 58.985 21.4408 59.0825 21.386 59.1791C21.1983 59.5472 20.9945 59.8886 20.7762 60.1947C22.5695 59.6116 23.3719 58.5864 23.8811 56.9475C21.9814 58.9415 21.5359 58.8731 21.5359 58.8731Z" fill="#D2CFCB"/>
<path d="M17.3684 59.4199C15.94 58.7941 14.792 60.0215 14.0742 60.7656C16.6103 61.641 19.4469 60.9371 20.7771 60.1938C20.9938 59.8886 21.1984 59.5479 21.3861 59.1799C20.6361 60.4265 18.7501 60.0255 17.3684 59.4199Z" fill="#DEDBD7"/>
<path d="M12.9785 57.2938C13.7019 55.8699 14.0854 53.2904 13.8671 51.8457C13.6246 54.9277 12.1342 56.8114 10.4568 57.1263C10.1531 57.1746 9.86066 57.1818 9.58433 57.1529C9.1235 57.0916 8.66348 56.9121 8.22119 56.6084C8.14787 56.5577 8.07778 56.5029 8.0085 56.4474C6.72834 56.0664 5.69793 54.9825 5.39501 53.6553C5.3926 53.6416 5.38696 53.6303 5.38454 53.6174C5.39743 53.8332 5.41757 54.0483 5.44335 54.2601L5.44819 54.306C5.52714 54.947 5.66007 55.5623 5.85825 56.1413C7.26892 58.6951 11.3285 60.5409 12.9785 57.2938Z" fill="#EBE7E3"/>
<path d="M10.4561 57.1264C10.1524 57.1747 9.86157 57.182 9.58362 57.153C9.12441 57.0918 8.66278 56.9122 8.22209 56.6085C7.88453 56.375 7.5937 56.0819 7.36006 55.7452C6.20236 54.5469 5.5643 52.4095 5.46198 50.9583L5.45795 50.9051V50.9059V50.9051V50.9075C5.41445 51.2925 5.37497 51.7443 5.37014 52.159V52.1607C5.33469 53.0393 5.37256 53.8905 5.50146 54.6959C5.50629 54.7104 5.50871 54.7257 5.51113 54.7426C6.79289 57.1787 10.3498 59.6084 12.7175 55.5052C12.102 56.4129 11.3028 56.9677 10.4561 57.1264Z" fill="#F2EFEA"/>
<path d="M25.916 5.58845C23.6973 1.51585 23.6223 2.28817 22.2358 2.04415C20.3587 2.14482 18.2608 3.4543 15.6272 2.31716C19.3339 4.53507 22.4558 -0.249456 25.9667 5.68268C25.9692 5.68751 26.0102 5.76482 26.0135 5.76965C25.9982 5.74308 25.9869 5.71892 25.974 5.69798C25.9426 5.63677 25.9208 5.59731 25.916 5.58845Z" fill="#E7E4E0"/>
<path d="M22.0043 4.39069C22.0252 4.37781 22.0486 4.36413 22.0704 4.35044C22.9026 3.8028 24.5268 3.51368 25.9753 5.69696C23.8476 2.09548 21.8649 2.42647 19.8081 2.75907C18.4651 2.97652 17.0907 3.19316 15.6269 2.31615C17.6885 3.64415 20.0329 5.6132 22.0043 4.39069Z" fill="url(#paint9_linear_16_104)"/>
<path d="M9.83417 60.1177C10.7663 59.5354 11.5615 58.7212 12.1939 57.7766C10.4319 59.3953 6.61726 58.8702 5.49662 54.6656C5.72139 56.087 6.23055 57.3634 7.13045 58.3822C7.13931 58.3927 7.40598 58.6786 7.41887 58.6906C8.13508 59.3977 8.9818 59.8471 9.83417 60.1177Z" fill="#CCC9C6"/>
<path d="M16.4669 0.132165C15.0989 -0.369562 11.4977 0.708788 9.17187 0.935894C8.57972 0.993878 8.12132 1.1034 7.75717 1.24434C9.13239 0.945558 9.22746 1.24273 13.2564 0.792543C13.2766 0.789322 13.7849 0.740196 13.9146 0.732948C14.8202 0.674158 15.7128 0.735364 16.4492 1.12998C17.3749 1.62526 18.2482 1.83465 19.0868 1.92485C20.1301 2.03599 21.1195 1.96029 22.0798 2.00861C20.504 1.6454 17.7914 0.616979 16.4669 0.132165Z" fill="#F2EFEA"/>
<path d="M15.4093 0.0015974C13.7135 0.0273682 11.0347 0.753793 9.1721 0.936605C8.57915 0.993785 8.12155 1.10331 7.7566 1.24505C9.14713 0.966399 9.28731 1.24187 13.2575 0.792486C13.276 0.789264 13.786 0.740129 13.9133 0.732075C14.8204 0.674091 15.7115 0.735281 16.4486 1.12909C17.3743 1.62599 18.2484 1.83378 19.0863 1.92318C19.7155 1.99163 20.3237 1.99164 20.9199 1.99003C21.3122 1.99003 21.6981 1.99 22.0808 2.00772C20.5026 1.64532 17.7908 0.618526 16.4679 0.132101C16.2327 0.0467353 15.9354 0.00723481 15.5882 0.0015974H15.4093Z" fill="url(#paint10_linear_16_104)"/>
<path d="M19.0861 1.92408L18.9765 1.97965C17.4748 2.78982 16.0875 2.41373 15.1892 2.06985C15.3358 2.14877 15.4832 2.23092 15.6266 2.31789C18.2603 3.45503 20.3582 2.14394 22.2353 2.04327C22.1861 2.03441 22.1322 2.02072 22.0806 2.00784C21.1203 1.95952 20.131 2.03602 19.0861 1.92408Z" fill="#EBE7E3"/>
<path d="M22.0157 47.8799C20.3102 40.3573 16.5994 35.4592 13.331 31.4462C10.5563 28.0428 9.04739 24.3721 8.35293 21.0508C8.42141 21.8127 8.48425 22.6116 8.53581 23.425C9.16823 28.0388 10.8891 33.5191 15.9517 39.7202C20.5519 45.3536 21.5259 46.1219 22.0157 47.8799Z" fill="#FFFBF7"/>
<path d="M26.0604 5.85698C26.0604 5.85859 26.1135 5.9802 26.1135 5.9802C26.1264 6.00919 26.4326 6.73158 26.4438 6.75977C27.2986 8.76506 26.4148 10.4168 26.2457 10.7011C27.4791 15.0636 26.186 20.0551 24.1832 24.5924C23.3107 26.58 23.3429 28.3614 23.09 29.6177C23.0924 29.6113 23.0964 29.6048 23.0988 29.6C24.7625 26.5244 26.2835 23.5994 26.75 22.2642C26.8007 22.1208 26.8451 21.9823 26.8894 21.8438C28.495 17.7349 29.5447 12.2989 26.7959 7.24056C26.6759 7.01184 26.2779 6.26448 26.0604 5.85698Z" fill="#EBE7E3"/>
<path d="M22.0046 4.39165C23.2195 5.32584 24.063 6.42755 24.7865 7.522C24.5408 5.7865 24.1025 4.06387 22.6499 4.21125C22.4671 4.23139 22.2971 4.2644 22.123 4.33688C22.1174 4.3385 22.1021 4.31514 22.0046 4.39165Z" fill="#DEDBD7"/>
<path d="M26.4814 6.72281C26.4701 6.69463 25.6177 5.45843 25.1328 4.96476C24.5994 4.38733 23.826 4.04345 23.1493 4.06117C22.5257 4.07727 22.2808 4.24398 22.0874 4.33901C22.0568 4.3527 22.0214 4.38089 22.0053 4.39216C24.0838 3.7954 24.4802 5.80473 24.7871 7.52091C25.455 8.53161 25.9344 9.59788 26.2461 10.706C26.3646 10.4838 27.2484 8.6967 26.4814 6.72281Z" fill="#CCC9C6"/>
<path d="M14.0741 60.7647C14.9772 60.027 15.7208 59.2225 16.6723 59.2539C15.9875 59.2249 13.4328 59.7733 12.8407 60.1945C13.2386 60.4345 13.6527 60.6197 14.0741 60.7647Z" fill="#D2CFCB"/>
<path d="M22.8051 52.9836C22.7785 52.2813 22.6995 51.5863 22.5698 50.9147C22.3112 49.5762 21.8415 48.3303 21.1189 47.3108C18.4546 43.5547 12.0692 36.6296 10.4128 31.2346C10.8937 34.6162 10.0736 38.6824 11.4287 40.6796C11.8895 41.2731 12.335 41.8586 12.7604 42.432C16.0103 46.3089 19.7928 48.5574 19.6736 54.0571C19.6099 56.9708 18.6295 58.0105 17.1962 59.3538C17.2518 59.3724 17.309 59.3941 17.3686 59.4199C18.7519 60.0223 20.6363 60.4257 21.3856 59.1799C22.3531 57.2881 22.9042 55.5365 22.8051 52.9836Z" fill="#EFECE8"/>
<path d="M19.9224 54.5233C20.782 47.45 16.6966 43.6609 12.8046 39.2026C12.3542 38.7016 11.0539 38.1315 11.5639 39.3056C13.7608 42.7581 15.2263 46.1075 15.5743 47.5008C17.6263 55.7241 15.3721 58.3253 12.8416 60.1953C13.433 59.7733 15.9884 59.2249 16.6716 59.2547C16.8392 59.2595 17.0132 59.2909 17.1961 59.3538C18.3618 58.2601 19.1747 57.6851 19.6339 55.944C19.6992 55.7024 19.7572 55.4334 19.816 55.1362C19.8539 54.9445 19.8958 54.7416 19.9224 54.5233Z" fill="#E7E4E0"/>
<path d="M16.9208 49.3539C15.9709 45.551 13.7192 39.6149 9.72322 34.4317C9.66199 34.6169 9.30912 35.7356 9.01668 36.5675C9.28254 37.0257 9.50489 37.4123 9.66844 37.7119C9.87388 38.1097 10.006 38.3859 10.1752 38.7709C10.574 39.639 10.9502 40.4557 11.1146 40.7907C13.3325 45.2756 13.8642 49.3885 13.8666 51.8456C14.0318 54.9252 12.4898 58.459 9.83359 60.1172C11.0388 60.6367 11.9556 60.3459 12.8418 60.1945C15.0042 59.4077 18.9727 57.578 16.9208 49.3539Z" fill="#F2EFEA"/>
<path d="M3.42225 5.72195C0.74109 9.38544 0.0780513 15.3256 1.14955 18.4786C2.51833 22.5093 3.13061 24.5025 6.51187 29.895C6.82284 30.3903 4.7596 22.1469 4.30845 20.1416C3.89596 18.307 2.644 10.8109 5.29133 4.90211C5.53705 4.35368 5.81741 3.74969 6.13322 3.23427C5.07058 3.79156 4.16827 4.704 3.42225 5.72195Z" fill="url(#paint11_linear_16_104)"/>
<path d="M11.8841 3.91306C10.6547 4.50498 9.59207 5.38441 8.69782 6.38062C7.80114 7.38004 7.10588 8.54134 6.61927 9.77915C5.64929 12.2685 5.57517 15.0203 5.99974 17.6554C6.39934 20.3098 7.35804 22.8756 7.90427 25.5807C8.1814 26.9289 8.33609 28.3148 8.29178 29.6944C8.24424 31.0731 8.00175 32.4406 7.57798 33.738C7.84304 32.3987 7.98322 31.0425 7.92844 29.6944C7.88815 28.3463 7.66016 27.015 7.34193 25.7047C7.01565 24.3961 6.61686 23.0987 6.22451 21.7892C5.84425 20.4765 5.48897 19.1412 5.27306 17.7697C5.0652 16.3998 4.98222 15.0026 5.0942 13.611C5.16107 12.9168 5.25694 12.2242 5.42774 11.5461C5.58967 10.8672 5.80639 10.1979 6.09239 9.5609C6.64989 8.2788 7.44989 7.10703 8.43921 6.13418C9.43336 5.17502 10.5878 4.35841 11.8841 3.91306Z" fill="#CCC9C6"/>
<path d="M9.09748 36.4602C9.37059 35.733 9.54541 34.9776 9.62839 34.2109C9.69526 33.4426 9.71218 32.6711 9.65498 31.9004C9.57361 30.3582 9.33756 28.8248 9.10634 27.2914C8.88318 25.7565 8.62538 24.2247 8.41833 22.6857C8.2 21.1483 8.12749 19.6053 7.98006 18.059L9.38348 27.2496C9.6147 28.7853 9.8298 30.3292 9.88217 31.8907C9.91278 32.6711 9.86686 33.4539 9.77341 34.2286C9.64128 35.0002 9.43262 35.758 9.09748 36.4602Z" fill="#CCC9C6"/>
<path d="M5.23705 5.02585C4.93735 6.00354 4.66666 6.98847 4.46847 7.98709C4.25578 8.9841 4.09949 9.99077 4.0012 11.0023C3.79738 13.0245 3.79738 15.0668 4.00765 17.0866C4.20503 19.1088 4.67713 21.094 5.18146 23.0703C5.4304 24.0609 5.70029 25.0466 5.92667 26.0468C6.13856 27.0463 6.34077 28.0634 6.31016 29.0902C6.26343 28.0666 6.02979 27.0704 5.76313 26.0863C5.49888 25.1014 5.20402 24.1237 4.92204 23.1412C4.35165 21.1777 3.8868 19.1692 3.65639 17.1237C3.55085 16.1001 3.50493 15.0717 3.51782 14.044C3.53151 13.0164 3.58469 11.9888 3.71923 10.9709C3.85296 9.95131 4.04471 8.94222 4.29123 7.94682C4.54984 6.95545 4.85759 5.97696 5.23705 5.02585Z" fill="#CCC9C6"/>
<path d="M3.32108 5.86746C2.87153 6.71709 2.567 7.63196 2.31887 8.55649C2.07315 9.48182 1.90155 10.4249 1.76539 11.3703C1.5092 13.2653 1.47939 15.1877 1.67677 17.0826C1.87335 18.9776 2.32692 20.8476 3.08503 22.5895C3.47254 23.4529 3.91 24.3146 4.34102 25.1634C4.76478 26.0195 5.2538 26.8417 5.70979 27.6938C5.40365 27.3201 5.11443 26.9359 4.83326 26.5421C4.56015 26.1459 4.29509 25.74 4.04615 25.3261C3.80366 24.9073 3.57002 24.4845 3.3525 24.0544C3.13175 23.6292 2.92229 23.1895 2.72894 22.7425C1.966 20.9547 1.52129 19.0428 1.33599 17.1172C1.14425 15.1885 1.24898 13.2428 1.54465 11.3373C1.69853 10.3854 1.91121 9.44075 2.1956 8.52025C2.4808 7.60135 2.82239 6.68971 3.32108 5.86746Z" fill="#DEDBD7"/>
<path d="M5.4001 5.74103C6.27905 4.40577 7.49314 3.31373 8.81358 2.40531C9.47904 1.95432 10.1977 1.57339 10.9687 1.30602C11.2466 1.21341 11.5286 1.13287 11.8218 1.08616C11.9362 1.06684 12.0571 1.05717 12.1739 1.04912C12.3834 1.03945 12.5952 1.03543 12.8063 1.07086C13.0206 1.09663 13.2252 1.16509 13.413 1.22951C14.9493 1.77634 16.2802 2.69443 17.6264 3.52312C18.3008 3.93626 18.9888 4.33329 19.7356 4.57087C20.1062 4.69006 20.4961 4.76335 20.886 4.73677C21.276 4.71261 21.6619 4.59503 22.0051 4.39208C21.682 4.62563 21.2977 4.78026 20.8949 4.82938C20.4913 4.88334 20.0812 4.8318 19.6889 4.73355C18.9026 4.52496 18.188 4.14001 17.4903 3.75425C16.1014 2.97227 14.7842 2.05821 13.2986 1.56212C13.1092 1.50252 12.9352 1.44293 12.754 1.41716C12.5727 1.38414 12.3834 1.38575 12.1948 1.39058C11.8178 1.41152 11.4383 1.49769 11.071 1.61527C10.3314 1.85446 9.63614 2.23136 8.96423 2.63966C8.29394 3.0528 7.6591 3.52715 7.06213 4.04498C6.4579 4.55557 5.89395 5.11689 5.4001 5.74103Z" fill="#CCC9C6"/>
<path d="M22.0046 4.39168C22.322 4.13156 22.7281 3.95921 23.1567 3.92941C23.5828 3.89881 24.0187 3.99948 24.3998 4.19357C25.0773 4.53664 25.5784 5.02387 25.9732 5.69794C25.9845 5.71727 26.0263 5.79297 26.0634 5.86384C26.0876 5.90894 26.1101 5.95323 26.123 5.97739C26.5484 6.76421 26.8215 7.52606 26.8545 8.362C26.8972 9.19473 26.7079 10.0242 26.2471 10.7072C26.6128 9.99443 26.7409 9.17379 26.6684 8.37489C26.5887 7.57519 26.326 6.79884 25.9192 6.10947C25.5172 5.42251 24.9645 4.81207 24.2789 4.4247C23.9357 4.23464 23.5538 4.11786 23.1615 4.10578C22.7675 4.09451 22.3679 4.19518 22.0046 4.39168Z" fill="#BBB8B5"/>
<path d="M9.99602 34.2685C10.3755 36.033 10.962 37.7451 11.7878 39.3373C12.1914 40.1386 12.6498 40.9101 13.1541 41.651L13.9259 42.76L14.311 43.3205C14.4383 43.5073 14.5527 43.7054 14.6744 43.8955C15.1634 44.6598 15.5807 45.4659 15.9787 46.2825C16.3541 47.1088 16.6756 47.96 16.9261 48.8338C17.1654 49.7084 17.3434 50.6007 17.4232 51.5035C17.5102 52.4055 17.5239 52.7856 17.4909 53.6852C17.4691 52.784 17.4288 52.4071 17.3031 51.5172C17.1847 50.6257 16.9994 49.7455 16.7376 48.8886C16.4709 48.0317 16.1253 47.2022 15.7547 46.3872C15.3551 45.5851 14.937 44.7902 14.4455 44.038C14.3239 43.8496 14.2079 43.6571 14.0822 43.4719L13.6963 42.9194C13.4425 42.5522 13.1767 42.1817 12.9269 41.8048C12.425 41.0486 11.9682 40.261 11.5694 39.4468C10.7767 37.8128 10.2401 36.0571 9.99602 34.2685Z" fill="#CCC9C6"/>
<path d="M9.49433 29.4059C9.63048 30.6244 9.94871 31.8139 10.3137 32.9808C10.6802 34.147 11.1201 35.2906 11.6357 36.3963C12.6701 38.607 13.9906 40.6976 15.6985 42.4347C16.1279 42.8591 16.5767 43.3005 16.9779 43.7692C17.3815 44.2387 17.7489 44.7388 18.0848 45.2599C18.7551 46.3004 19.2683 47.4431 19.6002 48.635C20.1577 50.6355 20.2311 52.7479 19.8846 54.779C19.817 55.1696 19.7324 55.5594 19.6341 55.9443C19.8742 54.7403 19.9934 53.517 19.9507 52.2969C19.9185 51.0776 19.7356 49.8624 19.3851 48.6987C19.0307 47.5366 18.5336 46.4163 17.8657 45.4008C17.533 44.8942 17.168 44.4062 16.7692 43.9496C16.3704 43.4873 15.9354 43.0758 15.4979 42.6304C13.7811 40.8498 12.4381 38.735 11.4424 36.4865C10.9461 35.3598 10.5231 34.2001 10.184 33.0187C10.0172 32.4268 9.87137 31.8308 9.7481 31.2284C9.62726 30.6268 9.52252 30.0188 9.49433 29.4059Z" fill="#D2CFCB"/>
<path d="M24.1159 26.2251C24.7547 24.9849 25.2792 23.6987 25.7384 22.3941C26.1984 21.0902 26.5795 19.759 26.8864 18.4117C27.1886 17.0651 27.402 15.6977 27.4874 14.3206C27.5213 13.6328 27.5229 12.9394 27.448 12.2557L27.3948 11.7402L27.2876 11.2337L27.2361 10.9792C27.2143 10.8946 27.1789 10.8157 27.1531 10.7336L26.9871 10.2383C27.6397 11.4833 27.7968 12.9346 27.7936 14.3286C27.7936 15.0317 27.7436 15.7331 27.6534 16.4305C27.5688 17.1264 27.4496 17.8181 27.2965 18.5035C27.0008 19.8742 26.5867 21.2175 26.0703 22.5197C25.5499 23.8179 24.9118 25.0775 24.1159 26.2251Z" fill="#FFFBF7"/>
<path d="M8.91028 25.7306C8.86113 25.4947 8.83052 25.3626 8.83052 25.3626C8.83052 25.3626 8.85711 25.493 8.91028 25.7306ZM8.72982 36.0728C8.86275 36.3015 8.97151 36.4811 9.08591 36.6856C9.13908 36.7807 9.19789 36.8797 9.25187 36.974C13.7908 44.9058 20.9062 50.6921 16.9078 56.9544C16.5509 57.5142 16.186 58.0883 15.5608 58.6464C16.2835 58.0513 16.849 58.1222 17.3542 58.1946C17.8859 58.2704 18.3531 58.3469 18.872 57.6422C19.0186 57.4433 19.2144 57.1219 19.3819 56.7064C19.4722 56.4881 19.5527 56.2474 19.6341 55.9437C19.6341 55.9437 21.8158 58.8873 23.9475 56.7491C24.6653 54.3604 24.9513 50.7622 21.765 46.8523C18.1397 42.4036 15.8798 41.9541 12.9514 36.9401C10.6351 32.9762 9.24703 27.2294 8.91028 25.7306C9.25026 27.3518 10.4764 33.8686 8.72982 36.0728Z" fill="url(#paint12_linear_16_104)"/>
<path d="M4.48892 7.54365C3.83716 10.4139 3.4279 14.6185 4.08127 18.9118C4.36566 20.789 5.75619 24.8874 6.07119 26.8629C5.27119 20.5563 2.2702 8.4883 11.8847 3.91156C9.59505 4.47932 5.09476 7.8529 4.48892 7.54365Z" fill="url(#paint13_linear_16_104)"/>
<path d="M15.4093 0.00160599C13.7135 0.0273743 11.0347 0.753799 9.1721 0.936611C8.57916 0.993793 8.12155 1.10331 7.7566 1.24506C6.68833 1.66061 6.42166 2.3653 5.98017 2.94112C5.72076 3.28016 5.54029 3.38404 5.30263 3.4388C5.29699 3.43961 5.29135 3.43963 5.28732 3.44204C3.47867 4.09034 -0.793625 9.36046 0.128829 16.6303C0.194891 17.3438 0.345545 18.0388 0.538092 18.7193C2.30324 25.6976 8.21743 35.0565 9.66918 37.7125C8.5993 40.1736 6.31612 45.2271 5.58783 49.9859C5.55721 50.1477 5.38158 51.2414 5.3703 52.157C5.27202 54.5795 5.7264 56.7926 7.13143 58.3823C7.13948 58.3928 7.40615 58.6795 7.41823 58.6916C8.13444 59.3979 8.98197 59.8472 9.83272 60.1178H9.83353C11.0388 60.6349 11.9572 60.3457 12.841 60.1951C13.2382 60.4351 13.6522 60.6203 14.0736 60.7645C16.6097 61.6407 19.4464 60.9377 20.7765 60.1951C22.5594 59.6161 23.3723 58.5684 23.8814 56.948C24.3946 55.4211 25.1801 52.3028 23.4029 47.6898C22.6021 45.6966 20.9972 42.5783 18.5207 38.0467L18.5054 38.0193C20.4889 34.2656 25.8029 24.9792 26.7495 22.2636C26.8002 22.1203 26.8454 21.9818 26.8897 21.8432C28.4953 17.7344 29.545 12.2975 26.7954 7.24081C26.6585 6.97586 26.1509 6.02637 25.9753 5.69698C25.943 5.63739 25.9213 5.59795 25.9157 5.58909C23.6969 1.51568 23.622 2.28799 22.2355 2.04317C22.1856 2.03592 22.1324 2.02061 22.0808 2.00773C20.5026 1.64532 17.7908 0.618534 16.4679 0.132111C16.2327 0.0467415 15.9354 0.00724411 15.5882 0.00160599H15.4093ZM17.1415 35.7796C17.0593 35.6395 16.9803 35.5075 16.9006 35.3722C13.8456 29.883 10.5562 25.1009 8.76848 20.6014C8.37291 19.3854 8.06355 18.1878 7.871 17.0418C7.19668 13.7593 7.47785 11.8297 8.73303 9.17527C9.93907 6.61832 13.5862 3.42836 15.6269 4.40443C17.8706 5.47875 19.1048 5.73244 19.9193 5.63338C20.7016 5.53674 21.0899 5.11071 21.6095 4.68549C21.7175 4.59127 21.9817 4.40843 22.0043 4.39072C23.2232 5.32894 24.0635 6.42421 24.7886 7.51947C30.9372 16.8042 20.7862 31.0185 17.4943 36.3539C17.2728 35.9834 17.1431 35.7805 17.1415 35.7796ZM9.58298 57.1526C9.12296 57.0922 8.66294 56.911 8.22065 56.609C7.60514 56.1829 7.14593 55.5539 6.90907 54.8444C6.19447 52.6974 6.34432 48.4316 10.1751 38.7715C10.5755 39.6381 10.9518 40.4554 11.1145 40.7905C13.3316 45.2754 13.8641 49.3883 13.8674 51.8462C13.6281 54.9363 12.1368 56.8119 10.4555 57.1268C10.271 57.1558 10.0905 57.1695 9.9141 57.1695C9.80211 57.1695 9.69174 57.163 9.58298 57.1526Z" fill="url(#paint14_linear_16_104)"/>
<path d="M15.4947 0.000793457C13.8045 0.00240326 11.0653 0.750557 9.1721 0.936588C8.57915 0.993767 8.12155 1.10329 7.75659 1.24503C6.68832 1.66059 6.42165 2.36527 5.98016 2.94109C5.72075 3.28014 5.54029 3.38401 5.30262 3.43877C5.29698 3.43958 5.29134 3.4396 5.28731 3.44202C3.47866 4.09032 -0.793633 9.36044 0.128821 16.6302C0.194884 17.3438 0.345537 18.0388 0.538084 18.7193C2.30323 25.6976 8.21742 35.0564 9.66918 37.7125C8.59929 40.1736 6.31611 45.2271 5.58782 49.9858C5.5572 50.1477 5.38157 51.2413 5.3703 52.1586C5.27201 54.5795 5.72639 56.7925 7.13142 58.3823C7.13947 58.3927 7.40614 58.6795 7.41822 58.6915C8.13443 59.3978 8.98196 59.8472 9.83272 60.1178H9.83352C11.0388 60.6348 11.9572 60.3457 12.841 60.1951C13.2381 60.4351 13.6522 60.6203 14.0736 60.7645C14.9348 61.0616 15.8299 61.1768 16.6895 61.172C18.3612 61.1599 19.8991 60.6848 20.7765 60.1951C22.5594 59.6161 23.3723 58.5683 23.8814 56.948C24.3946 55.4211 25.1801 52.3028 23.4029 47.6898C22.6021 45.6966 20.9972 42.5783 18.5207 38.0467L18.5054 38.0193C20.4889 34.2656 25.8029 24.9792 26.7495 22.2636C26.8002 22.1202 26.8454 21.9817 26.8897 21.8432C28.4953 17.7344 29.545 12.2975 26.7954 7.24079C26.6584 6.97744 26.1509 6.02634 25.9753 5.69696C25.943 5.63736 25.9213 5.59793 25.9156 5.58907C23.6969 1.51566 23.622 2.28797 22.2355 2.04314C22.1856 2.0359 22.1324 2.02059 22.0808 2.00771C20.5026 1.6453 17.7908 0.618511 16.4679 0.132084C16.2166 0.0402756 15.8903 0.000793457 15.5117 0.000793457H15.4947ZM17.1415 35.7796C17.0593 35.6395 16.9803 35.5074 16.9006 35.3721C13.8456 29.8829 10.5562 25.1008 8.76847 20.6014C8.37291 19.3853 8.06354 18.1878 7.87099 17.0418C7.19667 13.7592 7.47784 11.8296 8.73302 9.17525C9.93906 6.61829 13.5862 3.42833 15.6269 4.40441C17.8706 5.47873 19.1048 5.73241 19.9193 5.63335C20.7016 5.53671 21.0899 5.11069 21.6095 4.68547C21.7175 4.59124 21.9817 4.40841 22.0043 4.39069C23.2232 5.32891 24.0635 6.42418 24.7886 7.51944C30.9372 16.8042 20.7862 31.0185 17.4943 36.3538C17.2728 35.9834 17.1431 35.7804 17.1415 35.7796ZM9.58297 57.1525C9.12295 57.0921 8.66293 56.9109 8.22064 56.6089C7.60513 56.1829 7.14592 55.5539 6.90906 54.8444C6.19446 52.6974 6.34431 48.4315 10.1751 38.7715C10.5755 39.638 10.9517 40.4554 11.1145 40.7904C13.3316 45.2754 13.8641 49.3883 13.8673 51.8462C13.6281 54.9362 12.1368 56.8119 10.4555 57.1268C10.271 57.1558 10.0905 57.1694 9.91409 57.1694C9.80211 57.1694 9.69173 57.163 9.58297 57.1525Z" fill="url(#paint15_linear_16_104)"/>
<path d="M14.9825 52.7331C15.0397 49.9064 14.5047 47.1183 13.6185 44.4671C12.7275 41.8111 11.4804 39.288 10.0375 36.8872C9.32045 35.6808 8.57201 34.4736 7.87031 33.2503C7.1686 32.0238 6.47978 30.7916 5.8256 29.5385C4.51724 27.0363 3.28704 24.4834 2.36378 21.8113C2.93497 23.1031 3.54484 24.3682 4.20788 25.6125C4.85642 26.8616 5.53315 28.0954 6.22439 29.3227C7.60364 31.779 9.0562 34.1829 10.5241 36.5965C11.9726 39.0327 13.2149 41.6106 14.0326 44.3358C14.4443 45.6952 14.7504 47.0877 14.9212 48.4962C15.0864 49.904 15.117 51.3294 14.9825 52.7331Z" fill="#E1DEDA"/>
<g opacity="0.429993">
<path d="M4.20697 25.6122C4.85551 26.8605 5.53385 28.0959 6.22348 29.3224C6.50787 29.8282 6.79468 30.3323 7.08551 30.8348C7.91854 32.1612 8.85066 33.5271 9.87301 34.8519C14.5626 40.9354 17.5096 47.1325 15.3852 53.113C14.9993 54.2018 15.1934 54.7124 15.6825 54.7333H15.7469C17.0955 54.6786 20.3866 51.2832 20.4397 46.1717V45.9221C20.4035 42.4108 18.8333 38.1183 14.1026 33.5545C6.74875 27.9711 2.36448 21.8126 2.36448 21.8126C2.93487 23.1036 3.54393 24.3688 4.20697 25.6122Z" fill="url(#paint16_linear_16_104)"/>
</g>
<path d="M10.1752 38.771C10.006 38.386 9.87389 38.1098 9.66845 37.7119C8.59937 40.1739 6.3162 45.2274 5.5871 49.9861C5.55809 50.1472 5.38166 51.2433 5.37038 52.1597C5.38649 52.3232 5.41066 52.477 5.44208 52.618C6.08498 55.3916 7.08558 55.8635 7.5021 55.9344C7.24187 55.6122 7.04208 55.2426 6.90995 54.8439C6.19455 52.6985 6.34359 48.431 10.1752 38.771Z" fill="#F2EFEA"/>
<path d="M23.4029 47.689C22.6029 45.6974 20.9981 42.5783 18.5215 38.0451L18.5062 38.0201C18.5062 38.0201 16.9014 35.373 16.8998 35.3722C13.8456 29.883 10.557 25.1017 8.76769 20.5998C8.37373 19.3854 8.06275 18.1878 7.87101 17.0418C7.8694 17.037 7.8694 17.033 7.8686 17.0281C7.86698 17.0201 7.86618 17.0136 7.86376 17.0072C8.03778 18.1218 7.99266 19.2758 8.35198 21.0516C9.04805 24.3728 10.557 28.0428 13.33 31.4469C16.6001 35.4583 20.3109 40.358 22.0164 47.8799C22.2355 48.8471 22.5634 51.0038 22.6931 53.0043C22.8494 55.4163 22.3983 57.1002 21.537 58.876C21.558 58.9058 22.076 59.5952 23.5769 57.5005C23.6977 57.3177 23.7936 57.1324 23.8814 56.948C24.3946 55.4211 25.1809 52.3036 23.4029 47.689Z" fill="#FFFBF7"/>
<path d="M2.22349 11.2788C2.22349 12.5239 3.23295 13.5313 4.47847 13.5313C5.72479 13.5313 6.73425 12.5239 6.73425 11.2788C6.73425 10.0338 5.72479 9.02382 4.47847 9.02382C3.23295 9.02382 2.22349 10.0338 2.22349 11.2788ZM4.77977 10.2125C4.55178 10.1247 4.40837 9.90729 4.40676 9.67536C4.43013 9.67374 4.45349 9.66892 4.47847 9.66892C4.84825 9.66892 5.18501 9.79698 5.45651 10.008C5.34775 10.1602 5.17051 10.2504 4.98602 10.2504C4.91673 10.2504 4.84745 10.2383 4.77977 10.2125ZM2.97837 10.6998C3.11613 10.3446 3.37716 10.0547 3.70667 9.8735C3.75742 9.95806 3.78803 10.0587 3.78803 10.1626C3.78803 10.4847 3.52781 10.7448 3.20636 10.7448C3.12499 10.7448 3.05007 10.7304 2.97837 10.6998ZM4.13204 11.8498L3.84201 11.3038C3.80979 11.2418 3.82107 11.1661 3.86779 11.1153L4.29961 10.6708C4.34795 10.62 4.42368 10.6055 4.48572 10.637L5.04241 10.9091C5.10606 10.9397 5.1415 11.0066 5.13103 11.0766L5.04483 11.6895C5.03516 11.7596 4.98118 11.8144 4.91351 11.8264L4.30364 11.9327C4.29478 11.9343 4.28431 11.9343 4.27545 11.9343C4.21583 11.9343 4.16104 11.9029 4.13204 11.8498ZM5.5693 11.3924C5.5693 11.1169 5.76185 10.889 6.01643 10.8262C6.05993 10.9712 6.08893 11.1202 6.08893 11.2788C6.08893 11.5124 6.03737 11.7338 5.94553 11.9343C5.7264 11.8522 5.5693 11.6404 5.5693 11.3924ZM2.91795 11.6589C2.96467 11.6468 3.01382 11.6388 3.06538 11.6388C3.38521 11.6388 3.64705 11.8981 3.64705 12.2203C3.64705 12.3539 3.60193 12.4731 3.5262 12.5714C3.22651 12.3499 3.00818 12.031 2.91795 11.6589ZM4.33426 12.8742C4.37051 12.5883 4.6122 12.3676 4.90787 12.3676C5.10203 12.3676 5.27363 12.4651 5.37997 12.6125C5.12378 12.7864 4.81361 12.8879 4.47847 12.8879C4.42852 12.8879 4.38098 12.879 4.33426 12.8742Z" fill="url(#paint17_linear_16_104)"/>
<path d="M4.74593 7.19087L5.26637 8.0929L6.16868 7.5726L5.64824 6.67062L4.74593 7.19087Z" fill="url(#paint18_linear_16_104)"/>
<path d="M3.46497 15.2764L4.21582 16.0004L4.94009 15.2531L4.19004 14.5266L3.46497 15.2764Z" fill="url(#paint19_linear_16_104)"/>
<path d="M18.5972 53.146C18.5167 53.2515 18.4732 53.4278 18.4538 53.6541C18.4345 53.8836 18.4425 54.089 18.4595 54.2847C18.3749 54.1921 18.2073 54.1615 18.1179 54.23C18.1412 54.321 18.1718 54.4039 18.1839 54.5013C18.1936 54.569 18.1936 54.6439 18.1944 54.7163C18.0373 54.8315 17.856 54.9878 17.8311 55.2793C17.827 55.326 17.8286 55.3687 17.8286 55.413C17.7698 55.2278 17.6675 55.0385 17.6168 54.8774C17.5708 54.7341 17.4887 54.5964 17.4081 54.5239C17.3847 54.5005 17.3541 54.4933 17.3259 54.4764C17.3082 54.5239 17.2945 54.5746 17.2768 54.6181C17.2695 54.6399 17.2663 54.6624 17.2575 54.7059C17.2035 54.6503 17.16 54.5996 17.106 54.5601C17.0657 54.5311 17.0174 54.5182 16.9682 54.5086C16.8651 54.4852 16.8474 54.5102 16.8474 54.6608C16.8474 54.7099 16.845 54.7623 16.8434 54.8267C16.6186 54.7405 16.4937 54.9225 16.4985 54.9274C16.5461 54.9717 16.588 54.999 16.5984 55.0675C16.6089 55.1319 16.5831 55.2334 16.5509 55.3212C16.4865 55.4951 16.5292 55.7907 16.654 55.9059C16.7435 55.9888 16.9094 55.9735 17.0262 55.86C17.1616 55.7343 17.2035 55.3461 17.1277 55.2253C17.0818 55.1528 17.0496 55.152 16.9602 55.2132C16.9835 55.264 17.0303 55.3131 17.0238 55.3703C17.0174 55.4347 16.9723 55.5241 16.9263 55.5749C16.8635 55.6425 16.7926 55.649 16.7418 55.5934C16.6532 55.4943 16.6516 55.3228 16.7338 55.1617C16.7571 55.1174 16.8152 55.0345 16.845 55.0119C16.9723 54.9193 17.1229 54.8927 17.2156 54.9588C17.3187 55.0321 17.3815 55.1504 17.3944 55.326C17.4186 55.632 17.2599 56.1088 17.2744 56.4132C17.2848 56.6951 17.4862 56.8062 17.7207 56.8521C17.8238 56.8723 18.0905 56.9029 18.1453 56.923C18.424 57.0229 18.6657 57.0075 18.8139 56.7506C18.9662 56.4873 19.0492 55.9904 19.2119 55.7287C19.3062 55.5797 19.4149 55.504 19.5406 55.483C19.655 55.4677 19.7759 55.5564 19.8468 55.6981C19.8645 55.7319 19.8758 55.8309 19.8774 55.8825C19.8742 56.0629 19.7928 56.2151 19.6695 56.261C19.5962 56.2876 19.5358 56.2522 19.5124 56.162C19.4955 56.0967 19.4971 55.9968 19.5221 55.9348C19.5422 55.8825 19.6051 55.8616 19.6494 55.8261C19.5986 55.7303 19.5696 55.715 19.4955 55.7593C19.3722 55.8334 19.2433 56.1901 19.3062 56.3625C19.3553 56.5163 19.4971 56.6049 19.6139 56.5719C19.7807 56.5251 19.9394 56.2916 19.9652 56.104C19.9765 56.0138 20.0023 55.9123 20.0393 55.8583C20.0804 55.8012 20.1295 55.7963 20.1948 55.7802C20.1996 55.7786 20.2037 55.7673 20.2125 55.7536C20.1763 55.5563 20.0409 55.5885 19.9346 55.5354C19.962 55.475 19.9837 55.4299 20.0079 55.384C20.078 55.2503 20.0731 55.2197 19.97 55.1963C19.9225 55.1834 19.8742 55.1706 19.8234 55.1794C19.759 55.1883 19.6953 55.2165 19.622 55.2406C19.6333 55.1979 19.6405 55.1762 19.6446 55.1553C19.651 55.107 19.6615 55.0546 19.6679 55.0055C19.655 55.0071 19.6437 55.0071 19.6325 55.0055C19.6115 55.0055 19.5914 55.0039 19.5696 55.0103C19.4665 55.0393 19.3972 55.1037 19.2659 55.181C19.1434 55.2535 18.9855 55.4363 18.8574 55.6199C18.8728 55.5563 18.8905 55.4943 18.9138 55.4371C18.9968 55.2253 18.9815 55.0949 18.8993 54.9934L18.8059 54.842C18.8156 54.8194 18.826 54.7937 18.8357 54.7639C18.8792 54.6221 18.9461 54.5118 18.9984 54.3717C18.9751 54.2823 18.8156 54.1994 18.71 54.2364C18.7696 54.0447 18.8107 53.8361 18.8123 53.5929C18.8107 53.3706 18.7584 53.2337 18.6987 53.1282C18.6899 53.1129 18.677 53.1065 18.6641 53.1065C18.6415 53.1065 18.6166 53.1234 18.5972 53.146ZM14.5014 55.7786C14.4651 55.6522 14.4281 55.5241 14.3886 55.3864C14.221 55.4194 14.1211 55.5475 14.0486 55.6844C13.9777 55.8205 13.9406 55.9719 13.8859 56.1112C13.8182 56.0532 13.7505 55.992 13.6812 55.9308C13.4653 56.1861 13.4299 56.4535 13.6256 56.766C13.786 57.0205 13.9753 57.254 14.1566 57.4851C14.3628 57.7501 14.5723 58.003 14.5868 58.3493C14.6021 58.673 14.4281 58.9557 14.1525 59.1868C13.9342 59.3712 13.6917 59.4397 13.3872 59.4413C13.3775 59.4413 13.3517 59.5315 13.3469 59.5484C13.3743 59.6748 13.6015 59.6177 13.7159 59.5887C14.5755 59.3712 15.1306 58.7189 14.8728 58.0585C14.7737 57.796 14.4385 57.3788 14.3104 57.1243C14.2033 56.9158 14.1074 56.7047 14.1533 56.4583C14.2105 56.1676 14.4941 55.8841 14.8542 55.9437C15.0589 55.9767 15.2208 56.1458 15.2192 56.3512C15.2176 56.4833 15.1048 56.6581 14.9743 56.7152C14.8897 56.7507 14.8019 56.7627 14.7366 56.7015C14.677 56.6419 14.677 56.5678 14.7165 56.4873C14.7229 56.4744 14.7245 56.4599 14.7278 56.4446C14.5956 56.4551 14.4297 56.6355 14.4482 56.7764C14.4828 57.0229 15.0371 57.2194 15.2917 57.0518C15.5253 56.9004 15.651 56.5461 15.5672 56.261C15.4859 55.9856 15.3618 55.8414 15.1 55.7569C15.0718 55.7456 15.0476 55.7343 15.0266 55.723C15.079 55.5909 15.1217 55.4766 15.166 55.351C15.1499 55.3502 15.133 55.3502 15.1161 55.3502C14.8277 55.3502 14.6657 55.5314 14.5014 55.7786ZM16.472 56.7925C16.3044 56.8642 16.103 57.0647 16.0651 57.2032C16.1473 57.1815 16.2238 57.1541 16.2947 57.142C16.4486 57.1227 16.5525 57.1984 16.5799 57.3418C16.6025 57.4634 16.5138 57.6768 16.3906 57.7807C16.1908 57.9506 15.9797 58.1004 15.7727 58.2574C15.5318 58.4354 15.4238 58.6464 15.4415 58.8864C15.4633 59.2069 15.7332 59.4357 15.7807 59.4816C15.3626 60.0123 14.8663 60.4552 14.362 60.8579C14.5006 60.8982 14.6399 60.9368 14.7785 60.9674C15.2329 60.5808 15.676 60.1701 16.1046 59.7006C16.4687 59.8609 16.9143 59.8963 17.2639 59.6273C17.4887 59.4534 17.5926 59.2424 17.6828 59.0209C17.7513 58.8534 17.8037 58.6835 17.8617 58.5127C17.9422 58.2808 18.1106 58.094 18.2871 58.0247C18.449 57.9619 18.5457 58.0416 18.5602 58.2526C18.561 58.2808 18.5626 58.3066 18.5658 58.3533C18.677 58.2124 18.7181 58.0698 18.7487 57.9369C18.8027 57.6832 18.743 57.5278 18.6367 57.4263C18.5102 57.308 18.2975 57.2991 18.0808 57.4634C17.9962 57.5238 17.8883 57.6462 17.8101 57.7654C17.707 57.9232 17.6232 58.0827 17.5443 58.2437C17.2881 58.5828 17.0802 58.8034 16.9384 58.9355C17.0955 58.7004 17.2156 58.4507 17.3203 58.1987C17.4113 57.9812 17.4863 57.7605 17.5588 57.5383C17.5684 57.5109 17.5725 57.4819 17.5837 57.4312C17.5451 57.4682 17.5233 57.4819 17.5064 57.5036C17.2051 57.8684 16.8651 58.1995 16.5275 58.5232C16.4937 58.5546 16.4679 58.59 16.4365 58.6247C16.451 58.4507 16.5783 58.2252 16.7112 58.0295C16.7612 57.9788 16.8079 57.9281 16.8522 57.8733C16.9908 57.7098 17.1108 57.5125 17.1866 57.3216C17.2832 57.0712 17.2003 56.9109 17.0552 56.8134C16.9706 56.7555 16.8764 56.7232 16.7692 56.7232C16.6814 56.7232 16.5815 56.7458 16.472 56.7925ZM13.0303 57.411C12.8836 57.4022 12.5896 57.3909 12.5864 57.4022C13.4097 57.8185 13.6522 58.3911 13.786 59.0918C13.9632 59.0056 14.138 58.4773 14.1074 58.1994C14.0663 57.8137 13.852 57.5326 13.5 57.2653C13.4903 57.3184 13.4838 57.349 13.4742 57.3893C13.2824 57.3015 13.1624 57.1155 12.9183 57.076C12.9578 57.1968 12.9932 57.3015 13.0303 57.411ZM20.4502 58.4201C20.4365 58.4128 20.4155 58.4048 20.393 58.3927C20.2343 58.3033 19.6389 58.1696 19.3336 58.4974C19.1233 58.7302 18.8719 59.3148 19.257 59.5669C19.3513 59.6265 19.4198 59.6845 19.5696 59.6112C19.6945 59.5476 19.7775 59.4316 19.8355 59.2987C19.8468 59.2746 19.8484 59.248 19.8572 59.2101C19.8331 59.2287 19.8202 59.2359 19.8081 59.2496C19.684 59.3849 19.6115 59.4204 19.5511 59.3793C19.4907 59.3422 19.4431 59.1192 19.5116 58.9959C19.6945 58.6682 20.0393 58.5578 20.2101 58.6625C20.3455 58.7463 20.3761 58.9267 20.2673 59.1949C20.14 59.5081 19.9265 59.7594 19.6695 59.8657C19.4351 59.9624 19.2047 59.9994 18.9743 60.03C18.8309 60.0469 18.6891 60.0131 18.54 59.9809C18.3523 59.9382 18.1565 59.8963 17.9455 59.9551C17.3759 60.1178 16.7112 60.6412 16.3334 61.1663C16.4091 61.1704 16.484 61.172 16.5598 61.172C16.6693 61.0431 16.7998 60.9167 16.9529 60.8007C17.3912 60.4625 17.8254 60.2885 18.2347 60.307C18.5577 60.3239 18.8446 60.3852 19.1443 60.3981C19.3279 60.4069 19.5076 60.4182 19.6985 60.3843C19.9668 60.336 20.227 60.1315 20.4534 59.7594C20.3809 59.7441 20.314 59.7304 20.2391 59.7119C20.5533 59.43 20.8039 59.1006 20.886 58.6641C20.7563 58.7543 20.6363 58.8292 20.5106 58.9025C20.5936 58.7277 20.675 58.5619 20.7257 58.4C20.7797 58.2285 20.7733 58.0899 20.712 57.9957C20.6258 58.139 20.5461 58.2711 20.4502 58.4201ZM14.2009 59.6394C14.0212 59.786 14.026 60.03 14.1743 60.2225C14.2242 60.2877 14.2814 60.3441 14.3201 60.3892C14.4756 60.2611 14.6093 60.1299 14.76 60.0147C15.0935 59.7578 15.1902 59.4598 15.1418 59.1514C15.1306 59.0757 15.1088 59.0024 15.0887 58.9065C14.7874 59.1755 14.4828 59.4067 14.2009 59.6394ZM12.7249 59.7353C12.5646 59.7288 12.4123 59.7208 12.2585 59.7022C12.2569 59.7151 12.4293 59.881 12.5308 59.9575C12.4575 60.0195 12.389 60.0759 12.3197 60.1314C13.0544 60.1024 13.6007 60.4423 14.1477 60.783C14.0776 60.3425 13.4532 59.7489 12.6959 59.641C12.7048 59.6716 12.7137 59.7006 12.7249 59.7353ZM15.6575 60.6775C15.5406 60.812 15.3779 60.9376 15.2393 61.0592C15.5004 61.1043 15.7574 61.1333 16.0144 61.1494C16.0442 61.1357 16.074 61.1196 16.1014 61.0987C16.244 60.9964 16.3608 60.8587 16.4792 60.729C16.5654 60.6332 16.6307 60.5237 16.7136 60.4214C16.791 60.324 16.8788 60.2305 16.9642 60.129C16.4349 60.1443 15.9918 60.2917 15.6575 60.6775ZM18.4039 60.6582C17.9495 60.6968 17.4492 60.9046 16.9682 61.1647C17.7271 61.1365 18.4522 61.0149 19.0927 60.8458C18.9477 60.7194 18.7648 60.6533 18.5255 60.6533C18.4869 60.6533 18.4458 60.6558 18.4039 60.6582Z" fill="url(#paint20_linear_16_104)"/>
<path d="M13.9286 37.3203C13.9044 37.3235 13.8843 37.3364 13.8827 37.3606V37.3686C13.8907 37.5015 13.927 37.6553 14.0575 37.8542C14.2017 38.0741 14.3596 38.2376 14.5272 38.3753C14.412 38.4059 14.3177 38.5734 14.3523 38.6684C14.4804 38.7626 14.6061 38.8239 14.7278 38.9253C14.9832 39.1347 15.1145 39.0228 15.1346 38.9286C15.1403 38.8947 15.1008 38.8335 15.042 38.7626C15.0959 38.8117 15.1572 38.8448 15.2208 38.844C15.3328 38.819 15.4085 38.7675 15.3239 38.5919C15.2788 38.5025 15.1975 38.4002 15.1531 38.3068C15.1064 38.2086 15.0847 38.1176 15.0508 38.0226C14.9308 38.0129 14.7987 38.1377 14.7801 38.2714C14.6786 38.0845 14.5642 37.8945 14.4104 37.7004C14.2605 37.5079 14.1155 37.3743 13.9826 37.3267C13.9729 37.3235 13.9624 37.3211 13.9528 37.3203H13.9286ZM16.078 38.1506C16.1086 38.3664 16.3342 38.7256 16.5598 39.0034C16.4623 38.7739 16.5018 38.6434 16.5904 38.5299C16.6242 38.488 16.6154 38.3294 16.4921 38.1788C16.4446 38.12 16.335 38.0097 16.2633 37.9895C16.24 37.9823 16.2174 37.9791 16.1989 37.9791C16.1014 37.9791 16.0659 38.0644 16.078 38.1506ZM17.5991 38.3535C17.5467 38.3954 17.4532 38.4719 17.4009 38.7611C17.3574 38.7039 17.2357 38.596 17.1777 38.5452C17.156 38.5823 17.1262 38.6096 17.1141 38.6531C17.0738 38.7852 17.0955 38.9438 17.1882 39.1162C17.3461 39.415 17.5193 39.7089 17.6941 40.0013C18.0164 40.5408 18.3257 41.0587 18.1501 41.5322C18.1872 41.5298 18.1993 41.5306 18.2057 41.5298C18.2178 41.5258 18.2242 41.5105 18.2339 41.5048C18.4748 41.3365 18.6536 41.0522 18.478 40.7107C18.2975 40.358 17.8134 39.9151 17.645 39.5535C17.5467 39.3465 17.5419 39.1726 17.6103 39.0236C17.6732 38.8899 17.8569 38.8223 18.0599 38.8448C18.1082 38.8513 18.2266 38.91 18.2806 38.9439C18.478 39.0775 18.5876 39.2732 18.5489 39.4391C18.5272 39.535 18.4442 39.576 18.3306 39.5366C18.2468 39.5076 18.138 39.4351 18.0889 39.3666C18.0454 39.307 18.0671 39.2233 18.0607 39.15C17.9205 39.1363 17.8835 39.1573 17.8794 39.2684C17.8706 39.4545 18.0961 39.7226 18.329 39.7782C18.532 39.8338 18.7318 39.7436 18.7785 39.5938C18.8462 39.382 18.7737 39.1669 18.5884 39.0075C18.4965 38.9318 18.4031 38.8319 18.3725 38.7514C18.3411 38.67 18.3701 38.6113 18.395 38.5283C18.3983 38.5211 18.3886 38.5098 18.3813 38.4912C18.1396 38.3898 18.0776 38.5581 17.9439 38.6354C17.9004 38.5621 17.8657 38.5057 17.8311 38.447C17.7739 38.3455 17.74 38.3012 17.6973 38.3012C17.6708 38.3012 17.6401 38.3197 17.5991 38.3535ZM15.7106 38.6571C15.6704 38.695 15.6446 38.7739 15.6865 38.8496C15.7679 39.0034 15.933 39.1565 16.1151 39.2442C16.4623 39.4117 16.7773 39.6638 17.0109 39.986C17.0512 40.0431 17.0899 40.1011 17.1278 40.1599C16.9272 39.961 16.6935 39.779 16.4816 39.5938C16.2536 39.3981 16.0337 39.307 15.8476 39.3159C15.7928 39.3191 15.7542 39.3691 15.7566 39.4238C15.7654 39.6155 15.8951 39.812 16.0893 40.0472C16.2537 40.2461 16.418 40.4748 16.5968 40.6906C16.559 40.6584 16.5195 40.6286 16.4816 40.5964C16.2069 40.3749 15.9685 40.1076 15.7767 39.7991C15.6808 39.6445 15.2587 39.1267 15.0758 39.386C15.0097 39.4794 15.1113 39.6662 15.307 39.8168C15.481 39.9489 15.6591 40.0601 15.8347 40.1873C15.8379 40.3999 15.9193 40.5368 16.1731 40.7212C16.3197 40.8251 16.4663 40.9048 16.6122 41.0063C16.6557 41.0369 16.7185 41.0941 16.7338 41.1352C16.8079 41.343 16.9449 41.4525 17.0939 41.5185C17.2639 41.5934 17.417 41.5966 17.5266 41.5934C17.6265 41.5894 17.7296 41.5354 17.7989 41.442C17.9012 41.3059 17.964 40.9483 17.8109 40.664C17.7602 40.5706 17.6651 40.4627 17.5773 40.3886C17.5064 40.3258 17.4637 40.2856 17.4226 40.1978C17.3405 40.0182 17.2357 39.8394 17.1141 39.6671C16.94 39.4255 16.7878 39.3473 16.6202 39.3658C16.4736 39.1838 16.3407 39.0147 16.186 38.8593C16.0458 38.7199 15.8806 38.6346 15.7799 38.6346C15.7509 38.6346 15.7268 38.6418 15.7106 38.6571ZM14.5264 40.1929C14.5272 40.4377 14.8929 40.4724 14.9832 40.4377C15.0943 40.3951 15.1652 40.3097 15.2748 40.2702C15.3497 40.2461 15.4641 40.2751 15.6003 40.2831C15.3618 40.1333 15.0009 39.9561 14.7648 39.9561C14.623 39.9561 14.5256 40.0198 14.5264 40.1929ZM15.0492 40.6367C15.0065 40.6463 14.9767 40.6737 14.9388 40.6922C14.9912 40.7542 15.071 40.8766 15.1395 40.929C15.0404 40.9507 14.9525 40.9588 14.8744 40.9894C14.8116 41.0119 14.7664 41.0562 14.7189 41.1005C14.6198 41.1948 14.6351 41.2326 14.7971 41.3389C14.8543 41.376 14.9066 41.4138 14.9791 41.4629C14.7254 41.6433 14.8357 41.9083 14.8438 41.9067C14.926 41.885 14.9856 41.86 15.0669 41.897C15.1443 41.9341 15.2385 42.034 15.3086 42.129C15.4569 42.3255 15.6663 42.4109 15.8822 42.3577C16.0361 42.3207 16.136 42.1282 16.0941 41.9204C16.0522 41.686 15.8009 41.442 15.6156 41.4396C15.5036 41.4372 15.4794 41.4726 15.4835 41.6119C15.5576 41.6248 15.6406 41.6071 15.6978 41.6538C15.7638 41.7078 15.8299 41.8205 15.8532 41.9067C15.8847 42.0235 15.8396 42.1016 15.7421 42.1169C15.5737 42.1451 15.3844 42.0235 15.2651 41.8189C15.2329 41.7617 15.1838 41.6417 15.1805 41.5918C15.1701 41.3872 15.2482 41.2084 15.3868 41.1553C15.5407 41.0965 15.7131 41.1135 15.9129 41.223C16.2633 41.4171 16.6742 41.9268 17.0158 42.129C17.3453 42.3255 17.641 42.1668 17.8238 41.9373C17.8303 41.9284 17.8456 41.922 17.8504 41.9107C17.8512 41.9051 17.8504 41.8914 17.8561 41.8544C17.3727 42.0001 16.8756 41.6579 16.3568 41.3027C16.078 41.1094 15.7944 40.9169 15.5076 40.7397C15.3828 40.6632 15.2635 40.6238 15.1548 40.6238C15.1185 40.6238 15.0831 40.6286 15.0492 40.6367ZM19.1064 40.8871C18.8478 41.0208 18.7334 41.3832 18.9719 41.8479C19.0307 41.9591 19.1016 42.0766 19.1829 42.1789C19.4988 42.5783 19.8532 42.9021 20.2037 43.2331C20.4164 43.4376 20.6162 43.6591 20.8184 43.883C21.3388 44.462 21.243 45.149 21.2575 45.1812C21.4895 44.8035 21.6925 44.4145 21.5016 43.8121C21.3799 43.436 21.1245 43.18 20.8611 42.9512C20.6613 42.7757 20.4518 42.6267 20.244 42.4648C19.9612 42.2449 19.7807 41.9236 19.7694 41.649C19.759 41.3985 19.9145 41.3035 20.2134 41.3864C20.252 41.3969 20.2746 41.4025 20.3423 41.4219C20.2327 41.2189 20.0361 41.0812 19.8645 40.9765C19.68 40.8646 19.5221 40.8203 19.3844 40.8203C19.2804 40.8203 19.1886 40.846 19.1064 40.8871ZM18.677 42.4696C19.0387 43.0559 19.336 43.6792 19.6244 44.2969C19.7702 44.603 19.9789 44.8848 20.1698 45.1538C20.2407 45.2521 20.389 45.2794 20.501 45.3012C20.5791 45.3165 20.6339 45.339 20.6838 45.4333C21.3292 46.6155 21.8359 47.8509 22.2419 49.042C22.254 49.0823 22.2637 49.1435 22.2484 49.1781C22.0703 49.5349 22.1783 49.7902 22.3636 50.0221C22.5102 50.2073 22.7801 50.5826 22.8856 50.5737C22.9074 50.3507 22.9324 50.1308 22.9283 49.9117C22.9275 49.7144 22.9195 49.5067 22.8623 49.3222C22.8285 49.2103 22.7052 49.1451 22.6222 49.0565C22.5626 48.9937 22.4756 48.9453 22.4482 48.8672C22.0188 47.7035 21.5048 46.4907 20.8563 45.339C20.7918 45.2198 20.7765 45.1377 20.8168 45.0218C20.8844 44.8196 20.8208 44.5949 20.7016 44.3839C20.3946 43.8484 19.9813 43.4344 19.5511 43.0543C19.2925 42.8264 19.0234 42.6202 18.7503 42.414C18.7165 42.3875 18.6794 42.3698 18.615 42.3295C18.6464 42.3987 18.6569 42.4374 18.677 42.4696ZM17.508 42.7571C17.2849 42.9222 17.1761 43.1687 17.2035 43.5456C17.2244 43.8081 17.4049 44.1802 17.5789 44.2978C17.5886 44.1762 17.5862 44.0578 17.6039 43.9563C17.6498 43.7372 17.8037 43.6285 18.0132 43.6591C18.1936 43.6881 18.4458 43.9112 18.5304 44.1294C18.6722 44.4821 18.7825 44.8429 18.8986 45.2013C19.0323 45.6153 19.2716 45.8706 19.6132 45.9551C19.8911 46.0244 20.1602 45.9713 20.4317 45.8497C20.3165 45.7796 20.227 45.7224 20.1336 45.6693C19.8387 45.4977 19.6438 45.1981 19.4939 44.8438C19.307 44.4024 19.1322 43.9506 18.88 43.5415C18.7181 43.2725 18.503 43.0148 18.2734 42.8207C18.1187 42.6911 17.9745 42.6379 17.8424 42.6379C17.7191 42.6379 17.6063 42.6846 17.508 42.7571ZM15.2385 45.5943C15.0557 45.5637 14.8696 45.5347 14.6682 45.5025C14.6126 45.732 14.7157 45.9366 14.8478 46.1122C14.9791 46.2829 15.1507 46.4182 15.2974 46.5704C15.1813 46.6227 15.0621 46.6719 14.9453 46.7218C15.1419 47.1462 15.4641 47.354 15.9797 47.2944C16.4003 47.2445 16.8103 47.143 17.2172 47.0512C17.6804 46.9489 18.1276 46.8354 18.5795 47.0246C19.0049 47.2002 19.2611 47.5884 19.3932 48.0748C19.4971 48.4622 19.4399 48.8109 19.2611 49.1958C19.2555 49.2071 19.3417 49.29 19.3755 49.311C19.4279 49.1547 19.589 48.9131 19.622 48.7513C19.8589 47.5352 19.0428 46.6848 18.0422 46.6155C17.6482 46.5833 17.2486 46.6308 16.8458 46.6413C16.5155 46.6517 16.1868 46.6461 15.9024 46.4416C15.564 46.1935 15.3699 45.666 15.6607 45.2464C15.8275 45.0072 16.1401 44.9058 16.3995 45.0282C16.5703 45.1095 16.7266 45.3568 16.7201 45.5565C16.7169 45.687 16.6798 45.8046 16.5614 45.8497C16.4486 45.8907 16.3552 45.8472 16.2746 45.7465C16.2617 45.732 16.244 45.7216 16.2287 45.7087C16.161 45.881 16.2939 46.1967 16.4865 46.2579C16.82 46.3634 17.156 45.9342 17.0939 45.513C17.0399 45.1272 16.8603 44.8035 16.5211 44.6521C16.1489 44.487 15.8331 44.5458 15.5689 44.8228C15.5374 44.8534 15.5084 44.876 15.4818 44.8985C15.3425 44.7528 15.2216 44.6295 15.0887 44.4975C14.8696 44.8889 15.0073 45.2199 15.2385 45.5943ZM17.1294 46.2289C17.5088 46.2168 17.9036 45.7305 17.7247 45.298C17.5958 44.9751 17.2067 44.7093 16.9046 44.5241C17.3727 45.0596 17.562 45.641 17.1294 46.2289ZM21.9761 46.903C22.1098 47.1277 22.1984 47.3878 22.2991 47.6327C22.6633 47.4112 22.9211 46.9715 22.7713 46.4955C22.6947 46.2523 22.5626 46.0276 22.4393 45.8062C22.3451 45.6403 22.2266 45.4969 22.1251 45.3366C22.0252 45.1828 21.9382 45.0193 21.8375 44.8542C21.6063 45.5863 21.6007 46.2612 21.9761 46.903ZM20.5735 47.8195C20.6919 48.136 21.0319 48.2471 21.3694 48.136C21.4822 48.0973 21.5894 48.0466 21.6691 48.0152C21.5652 47.7406 21.4468 47.4973 21.359 47.2356C21.1632 46.6558 20.7966 46.3811 20.3455 46.2998C20.2351 46.2813 20.1207 46.2749 19.9805 46.2571C20.2117 46.7975 20.385 47.3218 20.5735 47.8195ZM16.5662 47.7696C16.6355 47.8098 16.6742 47.8308 16.7257 47.863C16.5155 48.0853 16.1997 48.1593 16.0273 48.4742C16.215 48.4775 16.3777 48.4791 16.5445 48.4807C16.4647 48.6764 16.31 49.075 16.3229 49.0855C17.2897 48.1545 18.1968 48.0949 19.2297 48.2488C19.195 47.9645 18.5457 47.4716 18.1469 47.3814C18.0196 47.3524 17.8955 47.3379 17.7739 47.3379C17.3646 47.3379 16.9795 47.4965 16.5662 47.7696ZM22.6826 48.0684C22.9412 47.9669 23.1982 47.8727 23.452 47.8195C23.4351 47.776 23.4198 47.7317 23.4029 47.689C23.3594 47.5803 23.3118 47.4667 23.2643 47.3508C23.0113 47.5553 22.7978 47.8171 22.6826 48.0684ZM22.7334 48.7086C22.7189 48.7134 22.7084 48.7344 22.6826 48.773C23.0709 48.8423 23.2152 49.1837 23.2877 49.5792C23.5124 49.5244 23.6139 49.3311 23.7122 49.1563C23.7968 49.2337 23.8758 49.3255 23.966 49.3915C23.8879 49.1072 23.8 48.8157 23.701 48.5177C23.6494 48.5121 23.597 48.508 23.5463 48.508C23.2724 48.508 23.0025 48.5918 22.7334 48.7086ZM19.357 50.0704C19.4037 50.072 19.4504 50.0728 19.5028 50.0737C19.4174 50.2887 19.3328 50.4957 19.2353 50.6962C19.2506 50.7059 19.5648 50.5488 19.7187 50.4457C19.7694 50.5778 19.8138 50.6969 19.8581 50.8177C20.1682 49.7974 20.8957 49.2143 21.6264 48.6272C21.5725 48.6176 21.5153 48.6135 21.4556 48.6135C20.7999 48.6135 19.8242 49.1692 19.357 50.0704ZM21.7312 49.3795C21.4782 49.5969 21.243 49.8368 21.1157 50.1654C20.9908 50.4811 21.0303 50.734 21.2325 50.949C21.4863 50.7179 21.6756 50.4852 21.6015 50.192C21.7787 50.1824 21.9479 50.1703 22.1622 50.155C22.0035 49.8062 21.9052 49.4978 22.1219 49.1258C22.1098 49.1161 22.0994 49.1056 22.0865 49.0976C21.9729 49.1934 21.848 49.2812 21.7312 49.3795ZM23.2272 49.8288C23.3577 50.0511 23.4504 50.2468 23.5817 50.4086C23.6728 50.5286 23.8226 50.6076 24.0079 50.5287C24.0724 50.5029 24.1594 50.4352 24.2037 50.3684C24.1859 50.2822 24.1666 50.1961 24.1465 50.1075C24.016 50.1228 23.9153 50.0463 23.8323 49.9859C23.6937 49.8868 23.5455 49.8232 23.34 49.8232C23.3046 49.8232 23.2667 49.8248 23.2272 49.8288ZM21.8883 50.8814C21.8359 51.0537 21.7634 51.1955 21.533 51.2446C21.6248 51.3783 21.765 51.4033 21.9269 51.3847C22.0792 51.3662 22.1855 51.2583 22.2516 51.1399C22.3523 50.9603 22.3636 50.7445 22.3394 50.5585C22.3265 50.4562 22.3064 50.3354 22.2734 50.2686C22.0639 50.4602 21.9576 50.6656 21.8883 50.8814ZM23.4754 51.1746C23.655 51.2768 23.9177 51.1584 24.0619 50.8629C23.8226 50.9289 23.7364 50.7783 23.6139 50.6543C23.506 50.5464 23.3674 50.4755 23.2289 50.3781C23.1572 50.6785 23.2804 51.0666 23.4754 51.1746ZM22.4699 51.1262C22.4756 51.2889 22.478 51.4355 22.3112 51.5861C22.4699 51.6328 22.6085 51.5933 22.7455 51.4846C22.8687 51.3895 22.9058 51.272 22.8993 51.1391C22.8873 50.908 22.7181 50.6317 22.5006 50.5295C22.4957 50.7477 22.4611 50.9458 22.4699 51.1262ZM23.2079 51.8067C23.2289 51.8389 23.2554 51.8566 23.2885 51.8599H23.3126C23.3408 51.8574 23.3739 51.847 23.4125 51.8277C23.5229 51.7721 23.56 51.7093 23.5431 51.6239C23.4979 51.3831 23.3215 51.2333 23.1273 51.0892C23.0903 51.363 23.0798 51.6094 23.2079 51.8067Z" fill="url(#paint21_linear_16_104)"/>
<path d="M6.93733 35.3644L7.26603 35.1767L6.37097 33.6168L6.04227 33.8044L6.38627 34.406L4.7605 35.3394L4.96513 35.697L6.59171 34.7628L6.93733 35.3644ZM8.40439 37.1579L6.79473 37.4132L7.82111 36.1423L7.50208 35.5891L5.54841 36.7109L5.75224 37.0677L7.2475 36.21L7.25314 36.2196L6.07369 37.6266L6.24126 37.9181L8.05072 37.6113L8.05636 37.6185L6.56271 38.477L6.76734 38.8338L8.72181 37.7127L8.40439 37.1579Z" fill="#BCBAB7"/>
<path d="M96.854 44.9751C96.0564 44.9751 95.7155 43.912 95.7155 40.9864C95.7155 39.4678 96.4547 39.0884 98.5629 39.0884C99.1165 39.0884 99.5586 39.0926 99.983 39.0999C99.3105 41.1688 98.4086 44.9751 96.854 44.9751ZM92.5792 42.9802C92.5792 43.7546 92.6532 44.4154 92.7877 44.9751H81.6388C80.1562 44.9751 79.2084 44.6322 79.2084 43.2648V39.4678H82.72C83.0067 38.6142 83.1954 37.8336 83.2903 37.0008H79.2094C79.2261 35.8293 79.3116 34.7829 79.3971 33.5822C78.0677 34.0564 77.0241 34.6068 76.1681 35.5573V37.0008H74.3633C74.2121 38.0264 74.2121 38.8029 74.1745 39.4678H76.1681V43.4555C76.1681 46.2466 77.8592 47.4432 80.176 47.4432H95.3338C97.1908 47.4432 98.6171 45.9215 99.9882 42.4779V47.4432H103.026V37.0008C101.66 36.8862 100.405 36.809 99.0383 36.809C95.2775 36.809 92.5792 38.3672 92.5792 42.9802ZM108.536 41.8223V40.7977C108.536 39.4678 108.44 38.3286 108.251 37.0008H105.307C105.402 38.3286 105.496 39.4678 105.496 40.7977V47.4432H108.536C108.536 43.7202 109.732 39.4866 112.903 39.9431C112.903 39.2781 112.808 37.7585 112.62 36.809C110.304 37.0102 109.17 39.0499 108.536 41.8223ZM66.6707 44.9751C65.873 44.9751 65.5311 43.912 65.5311 40.9864C65.5311 39.4678 66.2724 39.0884 68.3795 39.0884C68.9332 39.0884 69.3753 39.0926 69.8017 39.0999C69.1271 41.1688 68.2273 44.9751 66.6707 44.9751ZM62.3979 42.9802C62.3979 46.133 63.5365 47.6328 65.0567 47.6328C66.9188 47.6328 68.4056 45.985 69.8059 42.4726V47.4432H72.8452V37.0008C71.4772 36.8862 70.224 36.809 68.855 36.809C65.0942 36.809 62.3979 38.3672 62.3979 42.9802ZM161.435 38.139C161.435 35.5385 159.63 33.9616 156.401 33.9616C154.616 33.9616 153.307 34.341 152.508 34.7224C152.052 35.3666 151.844 36.1086 151.558 37.2833C152.774 36.809 153.951 36.4307 155.737 36.4307C157.161 36.4307 158.302 37.0383 158.302 38.7091C158.302 40.5111 157.181 41.8223 151.083 45.3534C151.083 45.7339 151.103 46.4926 151.274 47.4432H161.339C161.626 46.5885 161.815 45.8297 161.909 44.9751H153.342C157.622 43.5118 161.435 41.9838 161.435 38.139ZM55.2402 44.5269L55.0838 44.4425C53.2613 43.4753 50.81 41.9953 50.81 39.2979C50.81 36.8278 52.4074 35.6699 54.3248 35.6699C56.4528 35.6699 57.7436 37.1697 57.7436 39.792C57.7436 41.5972 56.7489 43.1897 55.2402 44.5269ZM61.0675 47.6328L56.0639 44.9657C58.8957 43.937 60.9726 41.9077 60.9726 39.0311C60.9726 35.1571 58.0658 33.2028 54.3248 33.2028C50.8872 33.2028 47.582 35.4051 47.582 39.6586C47.582 43.247 50.3169 45.392 53.3176 46.9679L62.9662 51.9999C62.9662 49.7788 62.7013 48.5052 61.0675 47.6328ZM132.183 46.4926C131.33 46.4926 128.669 44.7646 128.669 40.1338C128.669 37.8534 130 36.4307 132.183 36.4307C134.367 36.4307 135.699 37.8534 135.699 40.1338C135.699 44.7646 133.039 46.4926 132.183 46.4926ZM132.183 33.9616C128.386 33.9616 125.535 36.24 125.535 39.9431C125.535 44.7844 130.189 47.6328 132.183 47.6328C134.178 47.6328 138.831 44.7844 138.831 39.9431C138.831 36.24 135.983 33.9616 132.183 33.9616ZM132.226 39.1385C131.561 39.6117 130.991 40.1651 130.489 40.7977C130.991 41.4304 131.561 41.9817 132.226 42.457C132.89 41.9817 133.458 41.4304 133.965 40.7977C133.458 40.1651 132.89 39.6117 132.226 39.1385ZM149.66 38.139C149.66 35.5385 147.854 33.9616 144.624 33.9616C142.84 33.9616 141.529 34.341 140.73 34.7224C140.276 35.3666 140.066 36.1086 139.781 37.2833C140.997 36.809 142.175 36.4307 143.96 36.4307C145.385 36.4307 146.525 37.0383 146.525 38.7091C146.525 40.5111 145.404 41.8223 139.307 45.3534C139.307 45.7339 139.326 46.4926 139.497 47.4432H149.565C149.848 46.5885 150.039 45.8297 150.134 44.9751H141.565C145.847 43.5118 149.66 41.9838 149.66 38.139ZM124.015 38.139C124.015 35.5385 122.212 33.9616 118.983 33.9616C117.197 33.9616 115.886 34.341 115.09 34.7224C114.633 35.3666 114.424 36.1086 114.14 37.2833C115.355 36.809 116.533 36.4307 118.319 36.4307C119.742 36.4307 120.882 37.0383 120.882 38.7091C120.882 40.5111 119.761 41.8223 113.664 45.3534C113.664 45.7339 113.683 46.4926 113.855 47.4432H123.922C124.208 46.5885 124.396 45.8297 124.49 44.9751H115.923C120.202 43.5118 124.015 41.9838 124.015 38.139Z" fill="white"/>
<path d="M149.938 29.4885C149.508 29.5969 149.035 29.6991 148.521 29.796C148.002 29.8929 147.363 29.9398 146.599 29.9398C145.846 29.9398 145.084 29.8387 144.315 29.6345C143.545 29.4312 142.852 29.1029 142.234 28.6506C141.616 28.1993 141.109 27.6041 140.717 26.8683C140.322 26.1325 140.127 25.2299 140.127 24.1657C140.127 23.1881 140.29 22.3293 140.612 21.5935C140.934 20.8566 141.385 20.2448 141.959 19.7528C142.535 19.264 143.219 18.8992 144.009 18.6574C144.799 18.4146 145.657 18.2947 146.582 18.2947C147.164 18.2947 147.728 18.35 148.277 18.4636C148.826 18.5751 149.374 18.7127 149.922 18.8742L149.682 21.311C149.197 21.0411 148.715 20.842 148.238 20.7138C147.757 20.5846 147.26 20.5199 146.745 20.5199C146.206 20.5199 145.723 20.6106 145.292 20.7951C144.862 20.9764 144.494 21.2297 144.186 21.5518C143.879 21.8759 143.642 22.2605 143.475 22.7066C143.308 23.1516 143.227 23.6384 143.227 24.1657C143.227 24.714 143.32 25.209 143.51 25.651C143.696 26.0908 143.955 26.4639 144.283 26.7714C144.612 27.0768 145.007 27.3113 145.469 27.4728C145.932 27.6333 146.436 27.7146 146.987 27.7146C147.481 27.7146 147.971 27.6583 148.455 27.5447C148.94 27.4332 149.385 27.2956 149.794 27.1341L149.938 29.4885Z" fill="white"/>
<path d="M160.751 25.4719C160.751 26.2473 160.632 26.9123 160.395 27.473C160.159 28.0317 159.824 28.4944 159.388 28.8592C158.951 29.2261 158.43 29.4971 157.822 29.6743C157.214 29.8535 156.544 29.94 155.812 29.94C155.081 29.94 154.412 29.8535 153.803 29.6743C153.196 29.4971 152.675 29.2261 152.238 28.8592C151.802 28.4944 151.467 28.0317 151.231 27.473C150.994 26.9123 150.875 26.2473 150.875 25.4719V18.4867H153.877V24.9726C153.877 25.3489 153.906 25.7001 153.965 26.0285C154.024 26.3578 154.128 26.6465 154.272 26.8998C154.417 27.152 154.614 27.3511 154.861 27.4959C155.107 27.6419 155.426 27.7148 155.812 27.7148C156.2 27.7148 156.518 27.6419 156.766 27.4959C157.014 27.3511 157.209 27.152 157.355 26.8998C157.499 26.6465 157.602 26.3578 157.662 26.0285C157.719 25.7001 157.75 25.3489 157.75 24.9726V18.4867H160.751V25.4719Z" fill="white"/>
<path d="M165.254 23.6816H166.028C166.287 23.6816 166.529 23.6566 166.755 23.6097C166.98 23.5596 167.177 23.4742 167.343 23.3512C167.51 23.2282 167.642 23.0656 167.739 22.8665C167.835 22.6685 167.884 22.4236 167.884 22.1338C167.884 21.842 167.835 21.6002 167.739 21.4084C167.642 21.2146 167.51 21.0582 167.343 20.9394C167.177 20.8216 166.98 20.7372 166.755 20.6903C166.529 20.6403 166.287 20.6163 166.028 20.6163H165.254V23.6816ZM162.252 18.487H165.834C167.567 18.487 168.842 18.7861 169.661 19.3823C170.477 19.9805 170.887 20.9123 170.887 22.1818C170.887 23.322 170.494 24.2121 169.709 24.851C168.921 25.492 167.825 25.8109 166.415 25.8109H165.254V29.7464H162.252V18.487Z" fill="white"/>
<path d="M77.5314 18.4868H80.5978L82.0513 27.1344H82.0836L83.5986 18.4868H87.4073L88.989 27.1344H89.0224L90.4904 18.4868H93.4119L90.8929 29.7473H87.0372L85.4399 21.1008H85.4065L83.9228 29.7473H80.0327L77.5314 18.4868Z" fill="white"/>
<path d="M96.6228 24.1172C96.6228 24.581 96.6708 25.0291 96.7688 25.4648C96.8647 25.8994 97.0138 26.284 97.2192 26.6175C97.4236 26.9511 97.6873 27.2168 98.0116 27.4159C98.3338 27.615 98.7196 27.715 99.1731 27.715C99.6235 27.715 100.013 27.615 100.336 27.4159C100.658 27.2168 100.921 26.9511 101.124 26.6175C101.329 26.284 101.48 25.8994 101.577 25.4648C101.673 25.0291 101.722 24.581 101.722 24.1172C101.722 23.6346 101.673 23.1739 101.577 22.7393C101.48 22.3036 101.329 21.9211 101.124 21.5918C100.921 21.2656 100.658 21.004 100.336 20.8101C100.013 20.6162 99.6235 20.5214 99.1731 20.5214C98.7196 20.5214 98.3338 20.6162 98.0116 20.8101C97.6873 21.004 97.4236 21.2656 97.2192 21.5918C97.0138 21.9211 96.8647 22.3036 96.7688 22.7393C96.6708 23.1739 96.6228 23.6346 96.6228 24.1172ZM93.523 24.1172C93.523 23.2135 93.645 22.4016 93.8869 21.6814C94.1278 20.9612 94.4864 20.3505 94.9598 19.8512C95.4332 19.3509 96.0233 18.9653 96.726 18.6974C97.4309 18.4285 98.2462 18.293 99.1731 18.293C100.097 18.293 100.912 18.4285 101.617 18.6974C102.322 18.9653 102.911 19.3509 103.384 19.8512C103.858 20.3505 104.215 20.9612 104.458 21.6814C104.7 22.4016 104.82 23.2135 104.82 24.1172C104.82 25.0093 104.7 25.816 104.458 26.5373C104.215 27.2585 103.854 27.8714 103.376 28.3758C102.897 28.8813 102.306 29.269 101.6 29.5369C100.898 29.8068 100.085 29.9413 99.1731 29.9413C98.2462 29.9413 97.435 29.8068 96.7344 29.5369C96.0379 29.269 95.4478 28.8813 94.9681 28.3758C94.4896 27.8714 94.1278 27.2585 93.8869 26.5373C93.645 25.816 93.523 25.0093 93.523 24.1172Z" fill="white"/>
<path d="M108.952 23.1658H109.741C109.979 23.1658 110.229 23.1575 110.492 23.1408C110.757 23.1252 110.993 23.0741 111.203 22.9886C111.413 22.9011 111.588 22.7729 111.726 22.6009C111.867 22.4279 111.936 22.1819 111.936 21.8578C111.936 21.6003 111.876 21.3888 111.75 21.222C111.627 21.0552 111.467 20.9281 111.268 20.8426C111.069 20.7572 110.837 20.6988 110.572 20.6654C110.31 20.6321 110.033 20.6165 109.741 20.6165H108.952V23.1658ZM105.951 18.4871H111.308C111.802 18.4871 112.272 18.5444 112.712 18.656C113.153 18.7696 113.541 18.9457 113.874 19.1823C114.206 19.4189 114.468 19.7128 114.656 20.0672C114.845 20.4236 114.939 20.8426 114.939 21.3262C114.939 22.0787 114.762 22.6978 114.405 23.1825C114.052 23.665 113.507 23.9934 112.776 24.1664V24.1976C113.013 24.2612 113.204 24.3634 113.35 24.5051C113.495 24.6448 113.621 24.8188 113.728 25.0283C113.837 25.2388 113.935 25.4807 114.027 25.7548C114.119 26.0289 114.234 26.3384 114.376 26.6834L115.472 29.7466H112.343L111.695 27.7152C111.544 27.2306 111.401 26.8325 111.268 26.5208C111.133 26.2102 110.986 25.9622 110.832 25.7798C110.675 25.5953 110.498 25.4702 110.298 25.4004C110.099 25.3295 109.861 25.2951 109.582 25.2951H108.952V29.7466H105.951V18.4871Z" fill="white"/>
<path d="M116.763 18.4868H119.764V27.5211H124.412V29.7473H116.763V18.4868Z" fill="white"/>
<path d="M128.463 27.5207H129.624C130.754 27.5207 131.62 27.2362 132.222 26.665C132.824 26.096 133.127 25.2476 133.127 24.1167C133.127 22.988 132.818 22.1385 132.205 21.5684C131.592 20.9983 130.733 20.7127 129.624 20.7127H128.463V27.5207ZM125.46 18.4865H129.559C130.539 18.4865 131.438 18.574 132.254 18.7449C133.072 18.9169 133.773 19.216 134.361 19.6413C134.946 20.0655 135.405 20.6387 135.732 21.3589C136.061 22.0781 136.225 22.9827 136.225 24.0688C136.225 25.1235 136.057 26.0105 135.724 26.7307C135.39 27.4519 134.928 28.0346 134.336 28.4806C133.745 28.9267 133.04 29.2488 132.222 29.4479C131.404 29.6469 130.517 29.747 129.559 29.747H125.46V18.4865Z" fill="white"/>
<path fill-rule="evenodd" clip-rule="evenodd" d="M41.2 18.4868V29.7473H44.7054V25.6805H47.2296L48.1273 23.2197H44.7054V20.9393H48.9552L49.8498 18.4868H41.2Z" fill="white"/>
<path fill-rule="evenodd" clip-rule="evenodd" d="M50.923 29.7464H54.4284V18.4859H50.923V29.7464Z" fill="white"/>
<path fill-rule="evenodd" clip-rule="evenodd" d="M56.8408 18.4868V29.7473H60.3483V25.6805H62.8704L63.7681 23.2197H60.3483V20.9393H64.596L65.4916 18.4868H56.8408Z" fill="white"/>
<path fill-rule="evenodd" clip-rule="evenodd" d="M70.9514 26.0705L69.5491 21.3803L68.1957 26.0705H70.9514ZM75.5296 29.7475H71.9888L71.5311 28.2342H67.5691L67.1301 29.7475H63.679L67.7828 18.487H71.4279L75.5296 29.7475Z" fill="white"/>
<defs>
<linearGradient id="paint0_linear_16_104" x1="9.45173" y1="33.987" x2="15.386" y2="19.5436" gradientUnits="userSpaceOnUse">
<stop stop-color="#858380"/>
<stop offset="1" stop-color="#A19F9C"/>
</linearGradient>
<linearGradient id="paint1_linear_16_104" x1="12.618" y1="-0.412865" x2="20.6551" y2="20.8288" gradientUnits="userSpaceOnUse">
<stop stop-color="#9D9B98"/>
<stop offset="1" stop-color="#797775"/>
</linearGradient>
<linearGradient id="paint2_linear_16_104" x1="20.8339" y1="16.2446" x2="-2.63948" y2="56.7729" gradientUnits="userSpaceOnUse">
<stop stop-color="#797775"/>
<stop offset="0.842522" stop-color="#F2EFEA"/>
<stop offset="1" stop-color="#F2EFEA"/>
</linearGradient>
<linearGradient id="paint3_linear_16_104" x1="10.1236" y1="55.1553" x2="10.1236" y2="8.27304" gradientUnits="userSpaceOnUse">
<stop stop-color="#9D9B98"/>
<stop offset="1" stop-color="#F2EFEA"/>
</linearGradient>
<linearGradient id="paint4_linear_16_104" x1="26.189" y1="36.6197" x2="13.9652" y2="2.62102" gradientUnits="userSpaceOnUse">
<stop stop-color="#9D9B98"/>
<stop offset="1" stop-color="#F2EFEA"/>
</linearGradient>
<linearGradient id="paint5_linear_16_104" x1="25.4087" y1="56.8477" x2="6.83305" y2="5.18182" gradientUnits="userSpaceOnUse">
<stop stop-color="#44433E"/>
<stop offset="1" stop-color="#F2EFEA"/>
</linearGradient>
<linearGradient id="paint6_linear_16_104" x1="13.9928" y1="7.179" x2="13.9928" y2="30.2407" gradientUnits="userSpaceOnUse">
<stop stop-color="#F2EFEA"/>
<stop offset="1" stop-color="#F2EFEA"/>
</linearGradient>
<linearGradient id="paint7_linear_16_104" x1="6.77172" y1="6.10399" x2="14.3155" y2="1.21534" gradientUnits="userSpaceOnUse">
<stop stop-color="#FAF6F2"/>
<stop offset="1" stop-color="#FFFBF7"/>
</linearGradient>
<linearGradient id="paint8_linear_16_104" x1="5.30246" y1="2.08627" x2="13.8869" y2="2.08627" gradientUnits="userSpaceOnUse">
<stop stop-color="#B0AEAB"/>
<stop offset="1" stop-color="#FAF6F2"/>
</linearGradient>
<linearGradient id="paint9_linear_16_104" x1="27.3394" y1="7.01894" x2="15.5923" y2="0.643121" gradientUnits="userSpaceOnUse">
<stop stop-color="#FFFBF7"/>
<stop offset="0.527027" stop-color="#FFFBF7"/>
<stop offset="1" stop-color="#B4B2AF"/>
</linearGradient>
<linearGradient id="paint10_linear_16_104" x1="7.75637" y1="1.00447" x2="22.0804" y2="1.00447" gradientUnits="userSpaceOnUse">
<stop stop-color="#CCC9C6"/>
<stop offset="1" stop-color="#FAF6F2"/>
</linearGradient>
<linearGradient id="paint11_linear_16_104" x1="4.7026" y1="3.15126" x2="3.17023" y2="29.7219" gradientUnits="userSpaceOnUse">
<stop stop-color="#FFFBF7"/>
<stop offset="1" stop-color="#FFFBF7"/>
</linearGradient>
<linearGradient id="paint12_linear_16_104" x1="8.73062" y1="42.0044" x2="24.4134" y2="42.0044" gradientUnits="userSpaceOnUse">
<stop stop-color="#DAD7D3"/>
<stop offset="1" stop-color="#FAF6F2"/>
</linearGradient>
<linearGradient id="paint13_linear_16_104" x1="8.34634" y1="19.5787" x2="7.82131" y2="9.65194" gradientUnits="userSpaceOnUse">
<stop stop-color="#BBB8B5"/>
<stop offset="1" stop-color="#FAF6F2"/>
</linearGradient>
<linearGradient id="paint14_linear_16_104" x1="14.2475" y1="5.18616" x2="14.2475" y2="58.5552" gradientUnits="userSpaceOnUse">
<stop stop-color="#DAD7D3"/>
<stop offset="0.512418" stop-color="#FFFBF7"/>
<stop offset="1" stop-color="#EEEBE7"/>
</linearGradient>
<linearGradient id="paint15_linear_16_104" x1="14.2475" y1="2.05525" x2="14.2475" y2="55.4242" gradientUnits="userSpaceOnUse">
<stop stop-color="#DAD7D3"/>
<stop offset="0.512418" stop-color="#FFFBF7"/>
<stop offset="1" stop-color="#EEEBE7"/>
</linearGradient>
<linearGradient id="paint16_linear_16_104" x1="16.9249" y1="55.8834" x2="9.44596" y2="25.1149" gradientUnits="userSpaceOnUse">
<stop stop-color="#FAF6F2"/>
<stop offset="0.512418" stop-color="#FFFBF7"/>
<stop offset="0.677314" stop-color="#FFFBF7"/>
<stop offset="0.90099" stop-color="#EBE7E3"/>
<stop offset="1" stop-color="#CCC9C6"/>
</linearGradient>
<linearGradient id="paint17_linear_16_104" x1="6.78204" y1="7.30366" x2="1.73514" y2="16.0174" gradientUnits="userSpaceOnUse">
<stop stop-color="#791426"/>
<stop offset="0.534653" stop-color="#AF1C3B"/>
<stop offset="1" stop-color="#791426"/>
</linearGradient>
<linearGradient id="paint18_linear_16_104" x1="5.82425" y1="6.74886" x2="0.77686" y2="15.4632" gradientUnits="userSpaceOnUse">
<stop stop-color="#791426"/>
<stop offset="0.534653" stop-color="#AF1C3B"/>
<stop offset="1" stop-color="#791426"/>
</linearGradient>
<linearGradient id="paint19_linear_16_104" x1="8.30554" y1="8.18614" x2="3.25876" y2="16.8996" gradientUnits="userSpaceOnUse">
<stop stop-color="#791426"/>
<stop offset="0.534653" stop-color="#AF1C3B"/>
<stop offset="1" stop-color="#791426"/>
</linearGradient>
<linearGradient id="paint20_linear_16_104" x1="8.43027" y1="77.7975" x2="27.4724" y2="32.5559" gradientUnits="userSpaceOnUse">
<stop stop-color="#791426"/>
<stop offset="0.534653" stop-color="#AF1C3B"/>
<stop offset="1" stop-color="#791426"/>
</linearGradient>
<linearGradient id="paint21_linear_16_104" x1="8.16272" y1="22.5565" x2="30.3611" y2="72.2571" gradientUnits="userSpaceOnUse">
<stop stop-color="#791426"/>
<stop offset="0.534653" stop-color="#AF1C3B"/>
<stop offset="1" stop-color="#791426"/>
</linearGradient>
</defs>
</svg>
