<svg width="48" height="48" viewBox="0 0 48 48" fill="none" xmlns="http://www.w3.org/2000/svg">
<g clip-path="url(#clip0_9_808)">
<path d="M24 48C37.2548 48 48 37.2548 48 24C48 10.7452 37.2548 0 24 0C10.7452 0 0 10.7452 0 24C0 37.2548 10.7452 48 24 48Z" fill="#F0F0F0"/>
<path d="M23.9999 0C14.4848 0 6.26335 5.53734 2.38135 13.5653H45.6184C41.7365 5.53734 33.5149 0 23.9999 0Z" fill="#338AF3"/>
<path d="M23.9999 48C33.5149 48 41.7365 42.4627 45.6185 34.4348H2.38135C6.26335 42.4627 14.4848 48 23.9999 48Z" fill="#338AF3"/>
<path d="M31.1732 24L28.2421 25.3788L29.803 28.2174L26.6202 27.6085L26.2168 30.8238L23.9999 28.459L21.7829 30.8238L21.3797 27.6085L18.1969 28.2173L19.7577 25.3787L16.8267 24L19.7578 22.6212L18.1969 19.7826L21.3796 20.3915L21.783 17.1762L23.9999 19.541L26.2169 17.1762L26.6202 20.3915L29.8031 19.7826L28.2422 22.6213L31.1732 24Z" fill="#FFDA44"/>
</g>
<defs>
<clipPath id="clip0_9_808">
<rect width="48" height="48" fill="white"/>
</clipPath>
</defs>
</svg>
