<svg width="48" height="48" viewBox="0 0 48 48" fill="none" xmlns="http://www.w3.org/2000/svg">
<g clip-path="url(#clip0_13_198)">
<path d="M48 24C48 37.2547 37.2547 48 24 48C10.7452 48 0 37.2547 0 24C0 24.0056 24 0.00271875 24 0C37.2547 0 48 10.7452 48 24Z" fill="#0052B4"/>
<path d="M24 0C23.9987 0 23.9973 0.001 23.996 0.001L24 0Z" fill="#F0F0F0"/>
<path d="M23.9358 24H24C24 23.9783 24 23.9574 24 23.9358C23.9786 23.9573 23.9573 23.9786 23.9358 24Z" fill="#F0F0F0"/>
<path d="M24 12.5218C24 8.29887 24 5.53165 24 0.00012207H23.996C10.743 0.00227832 0 10.7465 0 24H12.5217V16.9489L19.5728 24H23.9359C23.9573 23.9787 23.9787 23.9573 24.0001 23.9358C24.0001 22.3189 24.0001 20.8762 24.0001 19.5731L16.9489 12.5218H24Z" fill="#F0F0F0"/>
<path d="M12.142 3.13037C8.38834 5.26778 5.26778 8.38834 3.13037 12.142V24H9.39128V9.39137V9.39128H24C24 7.41662 24 5.53543 24 3.13037H12.142Z" fill="#D80027"/>
<path d="M23.9999 21.0486L15.4731 12.5219H12.5217C12.5217 12.5218 12.5217 12.5219 12.5217 12.5219L23.9998 24H23.9999C23.9999 24 23.9999 21.9651 23.9999 21.0486Z" fill="#D80027"/>
<path d="M14.4746 28.1738L15.7918 30.928L18.7662 30.2405L17.4342 32.9876L19.8261 34.8845L16.848 35.5557L16.8563 38.6086L14.4746 36.6986L12.093 38.6086L12.1013 35.5557L9.12305 34.8845L11.5151 32.9876L10.1829 30.2405L13.1575 30.928L14.4746 28.1738Z" fill="#F0F0F0"/>
<path d="M35.9329 33.3912L36.5915 34.7683L38.0788 34.4245L37.4127 35.7981L38.6087 36.7465L37.1196 37.0822L37.1237 38.6086L35.9329 37.6536L34.7421 38.6086L34.7462 37.0822L33.2572 36.7465L34.4532 35.7981L33.7872 34.4245L35.2743 34.7683L35.9329 33.3912Z" fill="#F0F0F0"/>
<path d="M29.8063 18.7826L30.4648 20.1598L31.9521 19.8159L31.2861 21.1894L32.482 22.1379L30.993 22.4735L30.997 24L29.8063 23.0449L28.6155 24L28.6195 22.4735L27.1305 22.1379L28.3265 21.1894L27.6605 19.8159L29.1477 20.1598L29.8063 18.7826Z" fill="#F0F0F0"/>
<path d="M35.9329 10.4347L36.5915 11.8119L38.0788 11.4681L37.4128 12.8416L38.6086 13.79L37.1196 14.1257L37.1237 15.6522L35.9329 14.6971L34.7421 15.6522L34.7462 14.1257L33.2572 13.79L34.4531 12.8416L33.7872 11.4681L35.2743 11.8119L35.9329 10.4347Z" fill="#F0F0F0"/>
<path d="M41.2846 16.6956L41.9431 18.0727L43.4303 17.7289L42.7643 19.1024L43.9603 20.0509L42.4712 20.3866L42.4753 21.9129L41.2846 20.958L40.0938 21.9129L40.0978 20.3866L38.6088 20.0509L39.8047 19.1024L39.1387 17.7289L40.6259 18.0727L41.2846 16.6956Z" fill="#F0F0F0"/>
<path d="M37.4578 24L37.9758 25.5943H39.6522L38.296 26.5797L38.8141 28.1739L37.4578 27.1886L36.1016 28.1739L36.6196 26.5797L35.2634 25.5943H36.9398L37.4578 24Z" fill="#F0F0F0"/>
</g>
<defs>
<clipPath id="clip0_13_198">
<rect width="48" height="48" fill="white"/>
</clipPath>
</defs>
</svg>
