<svg width="48" height="48" viewBox="0 0 48 48" fill="none" xmlns="http://www.w3.org/2000/svg">
<g clip-path="url(#clip0_13_249)">
<path d="M32.3477 1.49278C29.7477 0.528094 26.9356 0 23.9999 0C21.0642 0 18.2521 0.528094 15.6522 1.49278L13.5652 24L15.6522 46.5072C18.2521 47.472 21.0642 48 23.9999 48C26.9356 48 29.7477 47.472 32.3477 46.5072L34.4347 24L32.3477 1.49278Z" fill="#FFDA44"/>
<path d="M48.0001 24C48.0001 13.681 41.4871 4.88386 32.3479 1.49292V46.5075C41.4871 43.1162 48.0001 34.3193 48.0001 24Z" fill="#D80027"/>
<path d="M0 24C0 34.3193 6.513 43.1162 15.6522 46.5074V1.49292C6.513 4.88386 0 13.681 0 24Z" fill="black"/>
</g>
<defs>
<clipPath id="clip0_13_249">
<rect width="48" height="48" fill="white"/>
</clipPath>
</defs>
</svg>
