<svg width="48" height="48" viewBox="0 0 48 48" fill="none" xmlns="http://www.w3.org/2000/svg">
<g clip-path="url(#clip0_13_287)">
<path d="M24 48C37.2548 48 48 37.2548 48 24C48 10.7452 37.2548 0 24 0C10.7452 0 0 10.7452 0 24C0 37.2548 10.7452 48 24 48Z" fill="#6DA544"/>
<path d="M23.9999 9.39136L43.826 24L23.9999 38.6087L4.17383 24L23.9999 9.39136Z" fill="#FFDA44"/>
<path d="M23.9999 32.3478C28.6102 32.3478 32.3477 28.6104 32.3477 24C32.3477 19.3897 28.6102 15.6522 23.9999 15.6522C19.3895 15.6522 15.6521 19.3897 15.6521 24C15.6521 28.6104 19.3895 32.3478 23.9999 32.3478Z" fill="#F0F0F0"/>
<path d="M19.826 23.4783C18.3744 23.4783 16.9735 23.6991 15.6548 24.1087C15.7132 28.6687 19.4261 32.3479 23.9999 32.3479C26.8282 32.3479 29.3261 30.94 30.8361 28.7884C28.2526 25.5543 24.2775 23.4783 19.826 23.4783Z" fill="#0052B4"/>
<path d="M32.193 25.5994C32.2935 25.0815 32.3478 24.5472 32.3478 24C32.3478 19.3896 28.6104 15.6522 24 15.6522C20.56 15.6522 17.6069 17.7336 16.3289 20.7053C17.4585 20.4712 18.6282 20.3479 19.8262 20.3479C24.6747 20.3478 29.0609 22.3632 32.193 25.5994Z" fill="#0052B4"/>
</g>
<defs>
<clipPath id="clip0_13_287">
<rect width="48" height="48" fill="white"/>
</clipPath>
</defs>
</svg>
