<svg width="48" height="48" viewBox="0 0 48 48" fill="none" xmlns="http://www.w3.org/2000/svg">
<g clip-path="url(#clip0_13_307)">
<path d="M34.4347 2.38144C31.2795 0.85575 27.7397 0 24 0C20.2603 0 16.7205 0.85575 13.5652 2.38144L11.4783 24L13.5652 45.6186C16.7205 47.1442 20.2603 48 24 48C27.7397 48 31.2795 47.1442 34.4347 45.6186L36.5217 24L34.4347 2.38144Z" fill="#D80027"/>
<path d="M23.9999 15.6522L26.0718 22.029H32.7775L27.3528 25.9706L29.4248 32.3478L23.9999 28.4064L18.5751 32.3478L20.6474 25.9706L15.2227 22.029H21.9279L23.9999 15.6522Z" fill="#FFDA44"/>
<path d="M13.5653 2.38232C5.53744 6.26414 0 14.485 0 24C0 33.5151 5.53744 41.7359 13.5653 45.6178V2.38232Z" fill="#496E2D"/>
<path d="M34.4348 2.38232V45.6178C42.4626 41.7359 48.0001 33.515 48.0001 24C48.0001 14.4851 42.4626 6.26414 34.4348 2.38232Z" fill="#FFDA44"/>
</g>
<defs>
<clipPath id="clip0_13_307">
<rect width="48" height="48" fill="white"/>
</clipPath>
</defs>
</svg>
