<svg width="48" height="48" viewBox="0 0 48 48" fill="none" xmlns="http://www.w3.org/2000/svg">
<g clip-path="url(#clip0_13_253)">
<path d="M24 48C37.2548 48 48 37.2548 48 24C48 10.7452 37.2548 0 24 0C10.7452 0 0 10.7452 0 24C0 37.2548 10.7452 48 24 48Z" fill="#F0F0F0"/>
<path d="M48.0001 24C48.0001 14.485 42.4627 6.26347 34.4348 2.38147V45.6185C42.4627 41.7366 48.0001 33.5151 48.0001 24Z" fill="#D80027"/>
<path d="M0 24C0 33.5151 5.53734 41.7366 13.5653 45.6186V2.38147C5.53734 6.26347 0 14.485 0 24Z" fill="#D80027"/>
<path d="M28.1738 27.1304L32.3477 25.0435L30.2608 24V21.9131L26.0868 24L28.1738 19.8261H26.0868L23.9999 16.6957L21.9129 19.8261H19.8259L21.9129 24L17.739 21.9131V24L15.6521 25.0435L19.8259 27.1304L18.7825 29.2174H22.9564V32.3478H25.0433V29.2174H29.2173L28.1738 27.1304Z" fill="#D80027"/>
</g>
<defs>
<clipPath id="clip0_13_253">
<rect width="48" height="48" fill="white"/>
</clipPath>
</defs>
</svg>
