<svg width="48" height="48" viewBox="0 0 48 48" fill="none" xmlns="http://www.w3.org/2000/svg">
<g clip-path="url(#clip0_13_262)">
<path d="M48 24C48 21.0643 47.4719 18.252 46.5072 15.6522L24 14.6086L1.49278 15.6521C0.528094 18.252 0 21.0643 0 24C0 26.9356 0.528094 29.7479 1.49278 32.3477L24 33.3913L46.5072 32.3478C47.4719 29.7479 48 26.9356 48 24Z" fill="#F0F0F0"/>
<path d="M23.9999 48C34.319 48 43.1161 41.487 46.5071 32.3478H1.49268C4.88371 41.487 13.6807 48 23.9999 48Z" fill="#0052B4"/>
<path d="M1.49268 15.6522H46.5072C43.1161 6.513 34.319 0 23.9999 0C13.6807 0 4.88371 6.513 1.49268 15.6522Z" fill="#D80027"/>
<path d="M30.2609 16.6958H26.0869L26.7826 11.4783L29.5651 9.39136L32.3477 11.4783V15.6523L30.2609 16.6958Z" fill="#338AF3"/>
<path d="M17.739 16.6958H21.9129L21.2172 11.4783L18.4346 9.39136L15.6521 11.4783V15.6523L17.739 16.6958Z" fill="#338AF3"/>
<path d="M26.7827 16.6958H21.2173V11.4783L24 9.39136L26.7827 11.4783V16.6958Z" fill="#0052B4"/>
<path d="M15.6521 15.6523V27.1305C15.6521 29.8636 16.9723 32.2942 19.0085 33.8179L20.4694 33.4524L22.3129 35.3069C22.8581 35.4193 23.4222 35.4784 24 35.4784C24.5747 35.4784 25.1359 35.42 25.6782 35.3088L27.7826 33.5566L28.9912 33.8145C31.0266 32.2909 32.3478 29.8629 32.3478 27.1305V15.6523H15.6521Z" fill="#F0F0F0"/>
<path d="M15.6521 15.6522H18.9912V18.9913H15.6521V15.6522Z" fill="#D80027"/>
<path d="M22.3303 15.6522H25.6694V18.9913H22.3303V15.6522Z" fill="#D80027"/>
<path d="M29.0085 15.6522H32.3476V18.9913H29.0085V15.6522Z" fill="#D80027"/>
<path d="M18.9912 18.9913H22.3303V22.3304H18.9912V18.9913Z" fill="#D80027"/>
<path d="M25.6694 18.9913H29.0085V22.3304H25.6694V18.9913Z" fill="#D80027"/>
<path d="M15.6521 22.3293H18.9912V25.6684H15.6521V22.3293Z" fill="#D80027"/>
<path d="M18.9912 25.6686H22.3303V29.0077H18.9912V25.6686Z" fill="#D80027"/>
<path d="M22.3303 22.3293H25.6694V25.6684H22.3303V22.3293Z" fill="#D80027"/>
<path d="M29.0085 22.3293H32.3476V25.6684H29.0085V22.3293Z" fill="#D80027"/>
<path d="M25.6694 25.6686H29.0085V29.0077H25.6694V25.6686Z" fill="#D80027"/>
<path d="M22.3303 29.0077H25.6694V32.3468H22.3303V29.0077Z" fill="#D80027"/>
<path d="M18.9911 29.0079H15.8674C16.1539 30.2492 16.7172 31.385 17.4895 32.347H18.9911V29.0079Z" fill="#D80027"/>
<path d="M29.0085 32.3472H30.51C31.2825 31.3851 31.8456 30.2492 32.1321 29.0081H29.0085V32.3472Z" fill="#D80027"/>
<path d="M18.9912 32.3472V33.8041C19.9624 34.5349 21.0973 35.0589 22.3303 35.3103V32.3472H18.9912Z" fill="#D80027"/>
<path d="M25.6694 32.3472V35.3103C26.9025 35.0591 28.0374 34.5349 29.0085 33.8041V32.3472H25.6694Z" fill="#D80027"/>
</g>
<defs>
<clipPath id="clip0_13_262">
<rect width="48" height="48" fill="white"/>
</clipPath>
</defs>
</svg>
