<svg width="48" height="48" viewBox="0 0 48 48" fill="none" xmlns="http://www.w3.org/2000/svg">
<g clip-path="url(#clip0_13_214)">
<path d="M24 48C37.2548 48 48 37.2548 48 24C48 10.7452 37.2548 0 24 0C10.7452 0 0 10.7452 0 24C0 37.2548 10.7452 48 24 48Z" fill="#F0F0F0"/>
<path d="M18.7827 20.8696H47.7968C46.2628 9.09394 36.1937 0 24 0C22.2079 0 20.4626 0.198094 18.7826 0.570469V20.8696H18.7827Z" fill="#D80027"/>
<path d="M12.5217 20.8696V2.91821C5.93172 6.5139 1.21403 13.1093 0.203125 20.8696H12.5217V20.8696Z" fill="#D80027"/>
<path d="M12.5216 27.1304H0.203125C1.21403 34.8907 5.93172 41.4861 12.5217 45.0817L12.5216 27.1304Z" fill="#D80027"/>
<path d="M18.7826 27.1305V47.4295C20.4626 47.8019 22.2079 48 24 48C36.1937 48 46.2628 38.906 47.7968 27.1304H18.7826V27.1305Z" fill="#D80027"/>
</g>
<defs>
<clipPath id="clip0_13_214">
<rect width="48" height="48" fill="white"/>
</clipPath>
</defs>
</svg>
