<svg width="48" height="48" viewBox="0 0 48 48" fill="none" xmlns="http://www.w3.org/2000/svg">
<g clip-path="url(#clip0_9_839)">
<path d="M0 24C0 10.7452 10.7452 0 24 0C37.2547 0 48 10.7452 48 24L24 26.087L0 24Z" fill="#FFDA44"/>
<path d="M3.21155 36C7.36139 43.1734 15.1168 48 24 48C32.8833 48 40.6387 43.1734 44.7885 36L24 34.4348L3.21155 36Z" fill="#D80027"/>
<path d="M44.7885 36C46.8306 32.4699 48 28.3717 48 24H0C0 28.3717 1.16944 32.4699 3.2115 36H44.7885Z" fill="#0052B4"/>
<path d="M24 32.3478C28.6104 32.3478 32.3478 28.6104 32.3478 24C32.3478 19.3897 28.6104 15.6522 24 15.6522C19.3897 15.6522 15.6522 19.3897 15.6522 24C15.6522 28.6104 19.3897 32.3478 24 32.3478Z" fill="#FFDA44"/>
<path d="M24 29.2174C21.1231 29.2174 18.7826 26.8768 18.7826 24V20.8696C18.7826 17.9927 21.1232 15.6522 24 15.6522C26.8768 15.6522 29.2173 17.9928 29.2173 20.8696V24C29.2173 26.8769 26.8769 29.2174 24 29.2174Z" fill="#338AF3"/>
<path d="M32.3477 11.4783H26.0868C26.0868 10.3257 25.1524 9.3913 23.9999 9.3913C22.8473 9.3913 21.9129 10.3257 21.9129 11.4783H15.652C15.652 12.6309 16.6559 13.5652 17.8084 13.5652H17.7389C17.7389 14.7179 18.6733 15.6522 19.8259 15.6522C19.8259 16.8049 20.7602 17.7392 21.9129 17.7392H26.0868C27.2395 17.7392 28.1738 16.8049 28.1738 15.6522C29.3264 15.6522 30.2608 14.7179 30.2608 13.5652H30.1913C31.3439 13.5652 32.3477 12.6308 32.3477 11.4783Z" fill="black"/>
</g>
<defs>
<clipPath id="clip0_9_839">
<rect width="48" height="48" fill="white"/>
</clipPath>
</defs>
</svg>
