<svg width="48" height="48" viewBox="0 0 48 48" fill="none" xmlns="http://www.w3.org/2000/svg">
<g clip-path="url(#clip0_9_825)">
<path d="M24 48C37.2548 48 48 37.2548 48 24C48 10.7452 37.2548 0 24 0C10.7452 0 0 10.7452 0 24C0 37.2548 10.7452 48 24 48Z" fill="white"/>
<path d="M47.7968 20.8696H27.1306H27.1305V0.203156C26.1057 0.06975 25.061 0 24 0C22.939 0 21.8943 0.06975 20.8696 0.203156V20.8694V20.8695H0.203156C0.06975 21.8943 0 22.9388 0 24C0 25.0612 0.06975 26.1057 0.203156 27.1304H20.8694H20.8695V47.7968C21.8943 47.9303 22.939 48 24 48C25.061 48 26.1057 47.9303 27.1304 47.7968V27.1306V27.1305H47.7968C47.9303 26.1057 48 25.0612 48 24C48 22.9388 47.9303 21.8943 47.7968 20.8696Z" fill="#D80027"/>
</g>
<defs>
<clipPath id="clip0_9_825">
<rect width="48" height="48" fill="white"/>
</clipPath>
</defs>
</svg>
