<svg width="48" height="48" viewBox="0 0 48 48" fill="none" xmlns="http://www.w3.org/2000/svg">
<g clip-path="url(#clip0_13_238)">
<path d="M1.49268 32.3477C4.88371 41.4869 13.6807 48 23.9999 48C34.319 48 43.1161 41.4869 46.5071 32.3477L23.9999 30.2609L1.49268 32.3477Z" fill="#FFDA44"/>
<path d="M23.9999 0C13.6807 0 4.88371 6.513 1.49268 15.6522L23.9999 17.7391L46.5071 15.6521C43.1161 6.513 34.319 0 23.9999 0Z" fill="black"/>
<path d="M1.49278 15.6522C0.528094 18.2522 0 21.0643 0 24C0 26.9357 0.528094 29.7478 1.49278 32.3478H46.5073C47.472 29.7478 48 26.9357 48 24C48 21.0643 47.472 18.2522 46.5072 15.6522H1.49278Z" fill="#D80027"/>
</g>
<defs>
<clipPath id="clip0_13_238">
<rect width="48" height="48" fill="white"/>
</clipPath>
</defs>
</svg>
