<svg width="48" height="48" viewBox="0 0 48 48" fill="none" xmlns="http://www.w3.org/2000/svg">
<g clip-path="url(#clip0_13_318)">
<path d="M0 24C0 26.9356 0.528094 29.7478 1.49278 32.3477L24 33.3913L46.5072 32.3478C47.472 29.7478 48 26.9356 48 24C48 21.0643 47.472 18.2521 46.5072 15.6522L24 14.6086L1.49278 15.6521C0.528094 18.2521 0 21.0643 0 24H0Z" fill="#FFDA44"/>
<path d="M23.9999 0C13.6807 0 4.88371 6.513 1.49268 15.6522H46.5072C43.1161 6.513 34.319 0 23.9999 0Z" fill="#D80027"/>
<path d="M46.5071 32.3478H1.49268C4.88371 41.4869 13.6807 48 23.9999 48C34.319 48 43.1161 41.4869 46.5071 32.3478Z" fill="#496E2D"/>
<path d="M23.9999 15.6522L26.0718 22.0291H32.7775L27.3529 25.9706L29.4248 32.3478L23.9999 28.4065L18.5751 32.3478L20.6473 25.9706L15.2227 22.0291H21.928L23.9999 15.6522Z" fill="black"/>
</g>
<defs>
<clipPath id="clip0_13_318">
<rect width="48" height="48" fill="white"/>
</clipPath>
</defs>
</svg>
