<svg width="48" height="48" viewBox="0 0 48 48" fill="none" xmlns="http://www.w3.org/2000/svg">
<g clip-path="url(#clip0_9_822)">
<path d="M24 48C37.2548 48 48 37.2548 48 24C48 10.7452 37.2548 0 24 0C10.7452 0 0 10.7452 0 24C0 37.2548 10.7452 48 24 48Z" fill="#F0F0F0"/>
<path d="M31.7951 17.7391H28.655C28.681 18.0842 28.6957 18.4324 28.6957 18.7825C28.6957 21.1042 28.1154 23.3545 27.1038 24.9563C26.7917 25.4503 26.2672 26.148 25.5652 26.6186V17.739H22.4348V26.6186C21.7329 26.148 21.2084 25.4504 20.8963 24.9563C19.8845 23.3545 19.3043 21.1042 19.3043 18.7825C19.3043 18.4324 19.3191 18.0841 19.345 17.7391H16.205C16.1848 18.0825 16.1738 18.4303 16.1738 18.7825C16.1738 25.219 19.6115 30.2608 23.9999 30.2608C28.3883 30.2608 31.826 25.219 31.826 18.7825C31.8261 18.4303 31.8152 18.0825 31.7951 17.7391Z" fill="#D80027"/>
<path d="M9.91294 11.4783H13.0433V13.5653H16.1738V11.4783H19.3042V13.5653H22.4346V11.4783H25.565V13.5653H28.6954V11.4783H31.8258V13.5653H34.9562V11.4783H38.0866V13.5653H45.6182C41.7365 5.53734 33.5149 0 23.9999 0C14.4849 0 6.26335 5.53734 2.38135 13.5653H9.91294V11.4783Z" fill="#6DA544"/>
<path d="M38.0869 34.4348V36.5217H34.9565V34.4348H31.8261V36.5217H28.6957V34.4348H25.5653V36.5217H22.4348V34.4348H19.3044V36.5217H16.174V34.4348H13.0433V36.5217H9.91294V34.4348H2.38135C6.26335 42.4627 14.4848 48 23.9999 48C33.515 48 41.7365 42.4627 45.6185 34.4348H38.0869Z" fill="#D80027"/>
</g>
<defs>
<clipPath id="clip0_9_822">
<rect width="48" height="48" fill="white"/>
</clipPath>
</defs>
</svg>
