<svg width="48" height="48" viewBox="0 0 48 48" fill="none" xmlns="http://www.w3.org/2000/svg">
<g clip-path="url(#clip0_9_802)">
<path d="M24 48C37.2548 48 48 37.2548 48 24C48 10.7452 37.2548 0 24 0C10.7452 0 0 10.7452 0 24C0 37.2548 10.7452 48 24 48Z" fill="#F0F0F0"/>
<path d="M48.0001 24C48.0001 14.4849 42.4627 6.26341 34.4348 2.38141V45.6184C42.4627 41.7365 48.0001 33.515 48.0001 24Z" fill="#D80027"/>
<path d="M0 24C0 33.515 5.53734 41.7365 13.5653 45.6185V2.38141C5.53734 6.26341 0 14.4849 0 24Z" fill="#6DA544"/>
<path d="M17.739 24C17.739 27.4578 20.5421 30.2609 23.9999 30.2609C27.4577 30.2609 30.2608 27.4578 30.2608 24V21.913H17.739V24Z" fill="#6DA544"/>
<path d="M32.3478 19.826H26.0869C26.0869 18.6735 25.1525 17.7391 24 17.7391C22.8474 17.7391 21.913 18.6735 21.913 19.826H15.6521C15.6521 20.9787 16.6561 21.913 17.8085 21.913H17.7391C17.7391 23.0657 18.6734 24 19.826 24C19.826 25.1526 20.7604 26.0869 21.913 26.0869H26.0869C27.2396 26.0869 28.1739 25.1526 28.1739 24C29.3266 24 30.2609 23.0657 30.2609 21.913H30.1913C31.344 21.913 32.3478 20.9787 32.3478 19.826Z" fill="#FF9811"/>
</g>
<defs>
<clipPath id="clip0_9_802">
<rect width="48" height="48" fill="white"/>
</clipPath>
</defs>
</svg>
