<svg width="48" height="48" viewBox="0 0 48 48" fill="none" xmlns="http://www.w3.org/2000/svg">
<g clip-path="url(#clip0_13_259)">
<path d="M24 48C37.2548 48 48 37.2548 48 24C48 10.7452 37.2548 0 24 0C10.7452 0 0 10.7452 0 24C0 37.2548 10.7452 48 24 48Z" fill="#D80027"/>
<path d="M38.1831 19.696H27.3481L23.9999 9.39136L20.6517 19.696H9.81665L18.5824 26.0646L15.2341 36.3695L23.9999 30.0008L32.7657 36.3696L29.4174 26.0647L38.1831 19.696ZM21.0357 25.2675L22.1679 21.7829H25.8318L26.9641 25.2675V25.2675L23.9999 27.4211L21.0358 25.2675L21.0357 25.2675ZM25.1538 19.696H22.8461L23.9999 16.1447L25.1538 19.696ZM28.7392 23.9777L28.0261 21.783H31.7601L28.7392 23.9777ZM19.9736 21.783L19.2605 23.9777L16.2396 21.783H19.9736ZM19.2037 30.9058L20.3576 27.3546L22.2246 28.711L19.2037 30.9058ZM25.7752 28.7111L27.6422 27.3547L28.7961 30.9059L25.7752 28.7111Z" fill="#FFDA44"/>
</g>
<defs>
<clipPath id="clip0_13_259">
<rect width="48" height="48" fill="white"/>
</clipPath>
</defs>
</svg>
