<svg width="48" height="48" viewBox="0 0 48 48" fill="none" xmlns="http://www.w3.org/2000/svg">
<g clip-path="url(#clip0_13_312)">
<path d="M0 24C0 34.3191 6.513 43.1161 15.652 46.5071L17.7391 23.9999L15.652 1.4928C6.513 4.88392 0 13.6809 0 24Z" fill="#6DA544"/>
<path d="M48.0001 24C48.0001 10.7452 37.2548 0 24.0001 0C21.0644 0 18.2522 0.528094 15.6521 1.49278V46.5072C18.2522 47.472 21.0644 48 24.0001 48C37.2548 48 48.0001 37.2547 48.0001 24Z" fill="#D80027"/>
<path d="M15.6522 32.3478C20.2626 32.3478 24 28.6104 24 24C24 19.3897 20.2626 15.6522 15.6522 15.6522C11.0419 15.6522 7.30444 19.3897 7.30444 24C7.30444 28.6104 11.0419 32.3478 15.6522 32.3478Z" fill="#FFDA44"/>
<path d="M10.9565 19.826V25.0434C10.9565 27.6367 13.0588 29.7391 15.6522 29.7391C18.2456 29.7391 20.3479 27.6368 20.3479 25.0434V19.826H10.9565Z" fill="#D80027"/>
<path d="M15.6522 26.6087C14.7891 26.6087 14.0869 25.9065 14.0869 25.0434V22.9565H17.2173V25.0435C17.2173 25.9065 16.5151 26.6087 15.6522 26.6087Z" fill="#F0F0F0"/>
</g>
<defs>
<clipPath id="clip0_13_312">
<rect width="48" height="48" fill="white"/>
</clipPath>
</defs>
</svg>
