<svg width="48" height="48" viewBox="0 0 48 48" fill="none" xmlns="http://www.w3.org/2000/svg">
<g clip-path="url(#clip0_9_842)">
<path d="M47.5 24C47.5 36.9787 36.9787 47.5 24 47.5C11.0213 47.5 0.5 36.9787 0.5 24C0.5 11.0213 11.0213 0.5 24 0.5C36.9787 0.5 47.5 11.0213 47.5 24Z" fill="#F0F0F0" stroke="#8D1B3D"/>
<path d="M48 24C48 10.7452 37.2548 0 24 0C19.305 0 14.9256 1.34953 11.2264 3.67978L16.487 5.91488L9.39136 8.92969L16.487 11.9444L9.39136 14.959L16.487 17.9736L9.39136 20.9877L16.487 24.0017L9.39136 27.0163L16.487 30.0308L9.39136 33.0449L16.487 36.0593L9.39136 39.074L16.487 42.0881L11.2288 44.322C14.9275 46.6511 19.306 48 24 48C37.2548 48 48 37.2547 48 24Z" fill="#751A46"/>
</g>
<defs>
<clipPath id="clip0_9_842">
<rect width="48" height="48" fill="white"/>
</clipPath>
</defs>
</svg>
