<svg width="48" height="48" viewBox="0 0 48 48" fill="none" xmlns="http://www.w3.org/2000/svg">
<g clip-path="url(#clip0_9_805)">
<path d="M24 48C37.2548 48 48 37.2548 48 24C48 10.7452 37.2548 0 24 0C10.7452 0 0 10.7452 0 24C0 37.2548 10.7452 48 24 48Z" fill="#6DA544"/>
<path d="M13.5652 28.6957C13.5652 30.4245 14.9667 31.8261 16.6956 31.8261H26.0869C26.0869 33.2668 27.2548 34.4348 28.6956 34.4348H31.826C33.2667 34.4348 34.4347 33.2668 34.4347 31.8261V28.6957H13.5652Z" fill="#F0F0F0"/>
<path d="M34.6956 13.5653V20.8697C34.6956 22.0204 33.7594 22.9566 32.6086 22.9566V26.087C35.4855 26.087 37.826 23.7465 37.826 20.8697V13.5653H34.6956Z" fill="#F0F0F0"/>
<path d="M12.2608 20.8697C12.2608 22.0204 11.3246 22.9566 10.1738 22.9566V26.087C13.0507 26.087 15.3912 23.7465 15.3912 20.8697V13.5653H12.2608V20.8697Z" fill="#F0F0F0"/>
<path d="M30 13.5653H33.1304V20.8697H30V13.5653Z" fill="#F0F0F0"/>
<path d="M25.3043 17.7391C25.3043 18.0268 25.0702 18.2608 24.7826 18.2608C24.495 18.2608 24.2609 18.0267 24.2609 17.7391V13.5652H21.1305V17.7391C21.1305 18.0268 20.8964 18.2608 20.6088 18.2608C20.3211 18.2608 20.087 18.0267 20.087 17.7391V13.5652H16.9565V17.7391C16.9565 19.753 18.5949 21.3913 20.6088 21.3913C21.3844 21.3913 22.1036 21.1476 22.6957 20.7336C23.2878 21.1475 24.0071 21.3913 24.7827 21.3913C24.9389 21.3913 25.0925 21.3804 25.2435 21.3612C25.0217 22.2751 24.1985 22.9565 23.2174 22.9565V26.0869C26.0944 26.0869 28.4348 23.7463 28.4348 20.8695V17.7391V13.5652H25.3044V17.7391H25.3043Z" fill="#F0F0F0"/>
<path d="M16.9565 22.9566H21.6522V26.087H16.9565V22.9566Z" fill="#F0F0F0"/>
</g>
<defs>
<clipPath id="clip0_9_805">
<rect width="48" height="48" fill="white"/>
</clipPath>
</defs>
</svg>
