<svg width="48" height="48" viewBox="0 0 48 48" fill="none" xmlns="http://www.w3.org/2000/svg">
<g clip-path="url(#clip0_9_836)">
<path d="M34.4347 2.38144C31.2795 0.85575 27.7397 0 24 0C20.2603 0 16.7205 0.85575 13.5652 2.38144L11.4783 24L13.5652 45.6186C16.7205 47.1442 20.2603 48 24 48C27.7397 48 31.2795 47.1442 34.4347 45.6186L36.5217 24L34.4347 2.38144Z" fill="#FFDA44"/>
<path d="M23.9998 15.6522L26.0717 22.0291H32.7774L27.3527 25.9706L29.4246 32.3478L23.9998 28.4065L18.5749 32.3478L20.6473 25.9706L15.2225 22.0291H21.9278L23.9998 15.6522Z" fill="#496E2D"/>
<path d="M13.5653 2.38226C5.53744 6.26417 0 14.485 0 24C0 33.5149 5.53744 41.7358 13.5653 45.6177V2.38226Z" fill="#496E2D"/>
<path d="M34.4347 2.38226V45.6177C42.4625 41.7358 47.9999 33.5149 47.9999 24C47.9999 14.485 42.4625 6.26417 34.4347 2.38226Z" fill="#D80027"/>
</g>
<defs>
<clipPath id="clip0_9_836">
<rect width="48" height="48" fill="white"/>
</clipPath>
</defs>
</svg>
