<svg width="48" height="48" viewBox="0 0 48 48" fill="none" xmlns="http://www.w3.org/2000/svg">
<g clip-path="url(#clip0_13_294)">
<path d="M24 48C37.2548 48 48 37.2548 48 24C48 10.7452 37.2548 0 24 0C10.7452 0 0 10.7452 0 24C0 37.2548 10.7452 48 24 48Z" fill="white"/>
<path d="M24 0C10.7452 0 0 10.7452 0 24C0 26.9357 0.528094 29.7479 1.49278 32.3478H46.5073C47.472 29.7479 48 26.9357 48 24C48 10.7452 37.2547 0 24 0Z" fill="#0052B4"/>
<path d="M23.9999 0C13.6807 0 4.88371 6.513 1.49268 15.6522H46.5072C43.1161 6.513 34.319 0 23.9999 0Z" fill="#D80027"/>
<path d="M6.20605 13.5653V25.5377C6.20605 32.3481 15.103 34.4349 15.103 34.4349C15.103 34.4349 23.9999 32.3481 23.9999 25.5377V13.5653H6.20605Z" fill="#D80027"/>
<path d="M9.88574 15.6523H20.3206V11.4783L18.2336 12.5218L15.1032 9.39136L11.9727 12.5218L9.88574 11.4783V15.6523Z" fill="#FFDA44"/>
<path d="M21.9132 27.2047L15.1305 20.4221L8.3479 27.2047L10.5614 29.4183L15.1305 24.8492L19.6996 29.4183L21.9132 27.2047Z" fill="#FFDA44"/>
<path d="M21.9132 20.8696H18.7485C18.9265 20.5625 19.03 20.2068 19.03 19.8263C19.03 18.6736 18.0956 17.7394 16.943 17.7394C16.1466 17.7394 15.455 18.1854 15.1032 18.8412C14.7513 18.1855 14.0597 17.7394 13.2633 17.7394C12.1107 17.7394 11.1763 18.6736 11.1763 19.8263C11.1763 20.2068 11.2798 20.5626 11.4578 20.8696H8.3479C8.3479 22.0223 9.35187 22.9566 10.5043 22.9566H10.4349C10.4349 24.1092 11.3692 25.0435 12.5218 25.0435C12.5218 26.0641 13.2548 26.912 14.2227 27.0935L12.5784 30.8062C13.3664 31.1265 14.2276 31.3044 15.1306 31.3044C16.0336 31.3044 16.8948 31.1265 17.6829 30.8062L16.0385 27.0935C17.0065 26.9122 17.7394 26.0642 17.7394 25.0435C18.8921 25.0435 19.8264 24.1092 19.8264 22.9566H19.7569C20.9093 22.9566 21.9132 22.0222 21.9132 20.8696Z" fill="#F0F0F0"/>
</g>
<defs>
<clipPath id="clip0_13_294">
<rect width="48" height="48" fill="white"/>
</clipPath>
</defs>
</svg>
