<svg width="48" height="48" viewBox="0 0 48 48" fill="none" xmlns="http://www.w3.org/2000/svg">
<g clip-path="url(#clip0_13_333)">
<path d="M24 48C37.2548 48 48 37.2548 48 24C48 10.7452 37.2548 0 24 0C10.7452 0 0 10.7452 0 24C0 37.2548 10.7452 48 24 48Z" fill="white"/>
<path d="M32.3477 24C32.3477 26.087 28.6102 31.3043 23.9999 31.3043C19.3895 31.3043 15.6521 26.087 15.6521 24C15.6521 19.3896 19.3895 15.6522 23.9999 15.6522C28.6102 15.6522 32.3477 19.3896 32.3477 24Z" fill="#D80027"/>
<path d="M32.3477 24C32.3477 28.6104 28.6102 32.3478 23.9999 32.3478C19.3895 32.3478 15.6521 28.6104 15.6521 24" fill="#0052B4"/>
<path d="M32.8477 31.3789L35.0609 29.1657L36.5363 30.6412L34.3231 32.8544L32.8477 31.3789Z" fill="black"/>
<path d="M29.158 35.0676L31.3712 32.8544L32.8466 34.3299L30.6334 36.5431L29.158 35.0676Z" fill="black"/>
<path d="M37.2744 35.8051L39.4876 33.5919L40.9631 35.0673L38.7499 37.2805L37.2744 35.8051Z" fill="black"/>
<path d="M33.5847 39.4945L35.7979 37.2813L37.2734 38.7568L35.0602 40.97L33.5847 39.4945Z" fill="black"/>
<path d="M35.0608 33.5922L37.274 31.379L38.7495 32.8545L36.5363 35.0676L35.0608 33.5922Z" fill="black"/>
<path d="M31.3721 37.2809L33.5853 35.0677L35.0608 36.5432L32.8476 38.7564L31.3721 37.2809Z" fill="black"/>
<path d="M37.2842 16.6251L31.3823 10.7232L32.8578 9.24775L38.7597 15.1496L37.2842 16.6251Z" fill="black"/>
<path d="M31.3811 15.1503L29.1679 12.9371L30.6433 11.4617L32.8565 13.6748L31.3811 15.1503Z" fill="black"/>
<path d="M35.0698 18.8398L32.8566 16.6266L34.332 15.1512L36.5452 17.3644L35.0698 18.8398Z" fill="black"/>
<path d="M35.8071 10.7231L33.5939 8.50995L35.0694 7.03446L37.2826 9.24766L35.8071 10.7231Z" fill="black"/>
<path d="M39.4978 14.4132L37.2846 12.2L38.7601 10.7245L40.9733 12.9377L39.4978 14.4132Z" fill="black"/>
<path d="M8.5083 33.588L14.4102 39.4899L12.9347 40.9654L7.03281 35.0635L8.5083 33.588Z" fill="black"/>
<path d="M14.4099 35.0623L16.6231 37.2755L15.1477 38.7509L12.9345 36.5377L14.4099 35.0623Z" fill="black"/>
<path d="M10.7207 31.3743L12.9339 33.5875L11.4584 35.063L9.24522 32.8498L10.7207 31.3743Z" fill="black"/>
<path d="M12.9343 29.1605L18.8362 35.0624L17.3607 36.5379L11.4588 30.636L12.9343 29.1605Z" fill="black"/>
<path d="M14.4094 8.50537L8.50754 14.4073L7.03205 12.9318L12.9339 7.02988L14.4094 8.50537Z" fill="black"/>
<path d="M16.6228 10.7183L10.7209 16.6201L9.24543 15.1447L15.1473 9.24277L16.6228 10.7183Z" fill="black"/>
<path d="M18.8379 12.9329L12.936 18.8347L11.4606 17.3593L17.3625 11.4574L18.8379 12.9329Z" fill="black"/>
</g>
<defs>
<clipPath id="clip0_13_333">
<rect width="48" height="48" fill="white"/>
</clipPath>
</defs>
</svg>
