<svg width="48" height="48" viewBox="0 0 48 48" fill="none" xmlns="http://www.w3.org/2000/svg">
<g clip-path="url(#clip0_13_227)">
<path d="M0 24.0001C0 26.9357 0.528094 29.7479 1.49278 32.3478L24 34.4348L46.5072 32.3478C47.4719 29.7479 48 26.9357 48 24.0001C48 21.0644 47.4719 18.2522 46.5072 15.6523L24 13.5653L1.49278 15.6523C0.528094 18.2522 0 21.0644 0 24.0001H0Z" fill="#FFDA44"/>
<path d="M46.5071 15.6522C43.1161 6.51309 34.319 0 23.9999 0C13.6807 0 4.88371 6.51309 1.49268 15.6522H46.5071Z" fill="#D80027"/>
<path d="M1.49268 32.3478C4.88371 41.4869 13.6807 48 23.9999 48C34.319 48 43.1161 41.4869 46.5071 32.3478H1.49268Z" fill="#D80027"/>
</g>
<defs>
<clipPath id="clip0_13_227">
<rect width="48" height="48" fill="white"/>
</clipPath>
</defs>
</svg>
