<svg width="48" height="48" viewBox="0 0 48 48" fill="none" xmlns="http://www.w3.org/2000/svg">
<g clip-path="url(#clip0_13_323)">
<path d="M24 48C37.2548 48 48 37.2548 48 24C48 10.7452 37.2548 0 24 0C10.7452 0 0 10.7452 0 24C0 37.2548 10.7452 48 24 48Z" fill="#F0F0F0"/>
<path d="M24 17.7391H47.1732C46.5714 15.5065 45.6568 13.4026 44.4774 11.4781H24V17.7391Z" fill="#338AF3"/>
<path d="M9.06018 42.7826H38.9395C41.1298 41.0381 43.0082 38.9192 44.4772 36.5217H3.52246C4.99162 38.9191 6.86999 41.0381 9.06018 42.7826Z" fill="#338AF3"/>
<path d="M24 0V5.21737H38.9397C34.84 1.95225 29.6483 0 24 0Z" fill="#338AF3"/>
<path d="M24 17.7391H47.1732C46.5714 15.5065 45.6568 13.4026 44.4774 11.4781H24V17.7391Z" fill="#338AF3"/>
<path d="M0 24C0 26.1663 0.28875 28.2646 0.826781 30.2609H47.1733C47.7113 28.2646 48 26.1663 48 24H0Z" fill="#338AF3"/>
<path d="M20.8695 14.0457L17.9383 15.4245L19.4992 18.2633L16.3164 17.6545L15.913 20.8696L13.6962 18.5049L11.4792 20.8696L11.076 17.6545L7.8932 18.2631L9.45395 15.4244L6.52295 14.0457L9.45404 12.6671L7.8932 9.82839L11.0759 10.4372L11.4793 7.22205L13.6962 9.5868L15.9131 7.22205L16.3164 10.4372L19.4993 9.82839L17.9384 12.6672L20.8695 14.0457Z" fill="#FFDA44"/>
</g>
<defs>
<clipPath id="clip0_13_323">
<rect width="48" height="48" fill="white"/>
</clipPath>
</defs>
</svg>
