<svg width="48" height="48" viewBox="0 0 48 48" fill="none" xmlns="http://www.w3.org/2000/svg">
<g clip-path="url(#clip0_9_816)">
<path d="M24 48C37.2548 48 48 37.2548 48 24C48 10.7452 37.2548 0 24 0C10.7452 0 0 10.7452 0 24C0 37.2548 10.7452 48 24 48Z" fill="#F0F0F0"/>
<path d="M48 24C48 37.2548 37.2547 48 24 48C10.7452 48 0 37.2548 0 24" fill="#496E2D"/>
<path d="M41.5327 16.7009C40.6744 14.2669 38.3553 12.5218 35.6277 12.5218H30.261C26.8032 12.5218 24.0001 15.3249 24.0001 18.7827C24.0001 19.9124 24.3009 20.9981 24.8243 21.9131C22.8314 21.8968 20.9871 21.9269 19.8262 21.9131C19.8262 19.4985 19.8262 16.4225 19.8262 15.7789L20.0727 15.5324C21.1796 14.4256 20.8105 12.5809 20.8105 12.5809C20.8105 12.5809 18.966 12.212 17.8592 13.3189L16.5693 14.6088H15.1305C11.9608 14.6088 9.39143 17.1783 9.39143 20.3479H13.5654V25.0435C13.5654 25.7303 13.7038 26.3846 13.9541 26.9805L12.5218 28.1739H10.4349V26.0869H8.3479V30.2609H17.7392V34.4348H15.6522V36.5218H19.8262V32.3479L21.7392 30.0522H26.261L28.174 32.3479V34.4348H26.087V36.5218H34.4348V25.0434C34.4348 23.3146 35.8363 21.913 37.5652 21.913C37.6096 21.913 37.6537 21.9146 37.6977 21.9164C37.6113 21.5819 37.5652 21.2312 37.5652 20.8696C37.5654 18.6337 39.3235 16.8086 41.5327 16.7009ZM30.261 34.4347V30.0521H30.4349L32.3479 32.3478V34.4347H30.261Z" fill="#D80027"/>
</g>
<defs>
<clipPath id="clip0_9_816">
<rect width="48" height="48" fill="white"/>
</clipPath>
</defs>
</svg>
